<?xml version="1.0" encoding="utf-8"?>
<!-- Generator: Adobe Illustrator 23.1.0, SVG Export Plug-In . SVG Version: 6.00 Build 0)  -->
<svg version="1.1" id="レイヤー_1" xmlns="http://www.w3.org/2000/svg" xmlns:xlink="http://www.w3.org/1999/xlink" x="0px"
	 y="0px" viewBox="0 0 293.7 379.6" style="enable-background:new 0 0 293.7 379.6;" xml:space="preserve">
<style type="text/css">
	.st0{fill:#231815;}
	.st1{fill:#615F5F;}
	.st2{clip-path:url(#SVGID_2_);}
	.st3{fill:none;stroke:#040000;stroke-width:1.11;}
	.st4{fill:#040000;}
	.st5{fill:none;stroke:#040000;stroke-width:1.07;}
	.st6{fill:none;stroke:#040000;stroke-width:1.13;}
	.st7{fill:none;stroke:#040000;stroke-width:1.44;}
	.st8{fill:none;stroke:#040000;stroke-width:0.91;}
	.st9{fill:none;stroke:#040000;stroke-width:0.8;}
	.st10{fill:none;stroke:#040000;stroke-width:0.94;}
	.st11{clip-path:url(#SVGID_4_);}
	.st12{fill:#52504F;}
	.st13{fill:#150C0A;}
	.st14{fill:#D3D3D4;}
	.st15{clip-path:url(#SVGID_6_);}
	.st16{clip-path:url(#SVGID_8_);}
	.st17{clip-path:url(#SVGID_10_);}
	.st18{clip-path:url(#SVGID_12_);}
	.st19{clip-path:url(#SVGID_14_);}
	.st20{clip-path:url(#SVGID_16_);}
	.st21{clip-path:url(#SVGID_18_);}
	.st22{clip-path:url(#SVGID_20_);}
	.st23{clip-path:url(#SVGID_22_);}
	.st24{clip-path:url(#SVGID_24_);}
	.st25{clip-path:url(#SVGID_26_);}
	.st26{clip-path:url(#SVGID_28_);}
	.st27{fill:#4C4C4C;}
	.st28{fill:#FFFFFF;}
	.st29{fill:#7D7D7D;}
	.st30{clip-path:url(#SVGID_30_);}
	.st31{clip-path:url(#SVGID_32_);}
	.st32{clip-path:url(#SVGID_34_);}
	.st33{clip-path:url(#SVGID_36_);}
	.st34{clip-path:url(#SVGID_38_);}
	.st35{clip-path:url(#SVGID_40_);}
	.st36{clip-path:url(#SVGID_42_);}
	.st37{clip-path:url(#SVGID_44_);}
	.st38{clip-path:url(#SVGID_46_);}
	.st39{clip-path:url(#SVGID_48_);}
	.st40{clip-path:url(#SVGID_50_);}
	.st41{clip-path:url(#SVGID_52_);}
	.st42{clip-path:url(#SVGID_54_);}
	.st43{clip-path:url(#SVGID_56_);}
	.st44{clip-path:url(#SVGID_58_);}
	.st45{clip-path:url(#SVGID_60_);}
	.st46{clip-path:url(#SVGID_62_);}
	.st47{clip-path:url(#SVGID_64_);}
	.st48{clip-path:url(#SVGID_66_);}
	.st49{clip-path:url(#SVGID_68_);}
	.st50{clip-path:url(#SVGID_70_);}
	.st51{clip-path:url(#SVGID_72_);}
	.st52{clip-path:url(#SVGID_74_);}
	.st53{clip-path:url(#SVGID_76_);}
	.st54{clip-path:url(#SVGID_78_);}
	.st55{clip-path:url(#SVGID_80_);}
	.st56{clip-path:url(#SVGID_82_);}
	.st57{clip-path:url(#SVGID_84_);}
	.st58{clip-path:url(#SVGID_86_);}
	.st59{clip-path:url(#SVGID_88_);}
</style>
<title>tentsmap-2</title>
<path class="st0" d="M3.9,2.1h12.5v15.5H3.9V2.1z M4.7,16.2l5-6.4l-5-6.4V16.2z M15.1,2.8H5.2l5,6.4L15.1,2.8z M15.1,16.8l-5-6.4
	l-5,6.4H15.1z M15.6,16.2V3.5l-5,6.4L15.6,16.2z"/>
<path class="st0" d="M28.4,4.5c0,0.1-0.1,0.2-0.4,0.3c-0.1,0.6-0.3,1.4-0.6,2.4c-0.2,0.9-0.5,1.7-0.9,2.5c0.9,0.5,1.8,1.2,2.6,1.9
	l-1,1.5c-0.8-0.7-1.6-1.3-2.4-1.8c-1.4,2.1-3.3,3.9-5.5,5.2L18.7,15c1.1-0.7,2.2-1.4,3.2-2.3c0.8-0.8,1.6-1.6,2.2-2.6
	c-0.9-0.6-1.9-1.1-2.9-1.6l0.7-1.4c0.5,0.2,1.1,0.5,1.7,0.8L25,8.6c0.7-1.6,1.2-3.3,1.5-5l1.5,0.5C28.3,4.2,28.4,4.3,28.4,4.5z"/>
<path class="st0" d="M41.1,5.4c-1,1.2-2,2.3-3.2,3.4v8.2h-1.8v-6.8c-1.5,1.1-3.1,2-4.7,2.8l-1.3-1.6c1.9-0.9,3.8-2,5.5-3.2
	c1.7-1.3,3.2-2.8,4.4-4.5l1.3,1.2C41.9,5.2,41.8,5.4,41.1,5.4z"/>
<path class="st0" d="M51.3,14.1c-2.2,1.2-4.6,1.9-7.1,2.1c-0.1,0.3-0.2,0.3-0.4,0.3s-0.3-0.2-0.3-0.5l-0.2-1.7
	c2.3-0.1,4.7-0.6,6.8-1.6c2-1.1,3.5-2.9,4.1-5.1l1.5,1.1C54.8,10.9,53.3,12.8,51.3,14.1z M48.2,7.6l-1.3,1.3
	c-0.6-0.6-1.1-1.1-1.8-1.6c-0.7-0.6-1.3-1-1.6-1.2l1.1-1.3C46,5.6,47.1,6.5,48.2,7.6z"/>
<path class="st0" d="M66.2,4.8l1.1,1c0.3,0.2,0.4,0.4,0.4,0.4c-0.1,0.1-0.3,0.2-0.4,0.2c-0.3,0.7-0.8,1.4-1.2,2.1
	c-0.4,0.6-0.8,1.2-1.2,1.6c1.9,1.4,3.7,3,5.3,4.7l-1.4,1.2c-1.6-1.6-3.2-3.1-5-4.5c-0.8,0.9-1.7,1.7-2.6,2.5
	c-0.9,0.8-1.9,1.5-2.9,2.1L57,14.8c3.3-1.9,6.1-4.7,8-8l-6.4,0.4l-0.3-1.8l7.5-0.4L66.2,4.8z"/>
<path class="st0" d="M74.9,3.9c0,0.1,0,0.3-0.3,0.4v4c1,0.3,2,0.6,2.9,1c0.9,0.4,1.9,0.9,2.9,1.4l-0.9,1.5c-0.9-0.5-1.7-0.9-2.4-1.2
	c-0.8-0.4-1.6-0.7-2.5-0.9v6.5h-1.8V3.7h1.6C74.7,3.7,74.9,3.8,74.9,3.9z"/>
<path class="st0" d="M84.5,4.8c0,0.1,0,0.2-0.3,0.4V12h-1.8V4.6H84C84.3,4.6,84.4,4.6,84.5,4.8z M90.7,4.2c0,0.1,0,0.2-0.2,0.4v6.2
	c0,1.3-0.3,2.5-1,3.6c-0.9,1.2-2.1,2.3-3.5,2.9L84.5,16c1.2-0.5,2.3-1.2,3.2-2.2c0.7-0.8,1-1.9,1-2.9V4h1.6
	C90.5,4,90.7,4.1,90.7,4.2z"/>
<path class="st0" d="M92.5,11V9.2h14.1V11H92.5z"/>
<path class="st0" d="M110.9,3.9c0,0.1,0,0.3-0.3,0.4v4c1,0.3,2,0.6,2.9,1c0.9,0.4,1.9,0.9,2.9,1.4l-0.9,1.5
	c-0.9-0.5-1.6-0.9-2.4-1.2c-0.8-0.4-1.6-0.7-2.5-0.9v6.5h-1.9V3.7h1.6C110.6,3.7,110.8,3.8,110.9,3.9z"/>
<path class="st0" d="M123.1,11.7V8.6h3.1v3.1L123.1,11.7z"/>
<path class="st0" d="M141.1,3.3v1.4h4.8v1.6h-4.8V8h6.1v1.7h-4.4v6.4c0,0.2,0,0.3-0.1,0.5c-0.1,0.5-0.6,0.8-1.2,0.8H140l-0.2-1.7
	h0.9c0.2,0,0.3,0,0.3-0.1c0-0.1,0.1-0.2,0.1-0.3V9.7h-1.1v1.8c0,1.2-0.3,2.3-0.9,3.3c-0.9,1.4-2.3,2.4-4,2.8l-1-1.6
	c0.4-0.1,0.8-0.2,1.2-0.4c0.9-0.3,1.6-0.9,2.2-1.6c0.5-0.8,0.8-1.8,0.7-2.7V9.7h-4.8V8h5.9V6.3h-4.6V4.8h4.7V2.9h1.5
	C141.4,2.9,141.4,3.1,141.1,3.3z M137.7,11.3c0,0.1-0.2,0.2-0.4,0.2c-0.7,1.3-1.5,2.5-2.5,3.5l-1.3-1.2c0.3-0.2,0.5-0.5,0.7-0.8
	c0.7-0.9,1.4-1.9,1.9-3l1.3,0.9C137.6,11,137.7,11.1,137.7,11.3z M145.7,14.9c-0.8-1.3-1.7-2.6-2.8-3.7l1.4-1c1.1,1.1,2.1,2.3,3,3.6
	L145.7,14.9z"/>
<path class="st0" d="M160.6,5.7c1.2,1.1,1.8,2.7,1.7,4.3c0,1.4-0.5,2.8-1.3,3.8c-1,1.2-2.2,2.1-3.7,2.6l-1.4-1.5
	c3.1-1.2,4.6-2.8,4.6-4.9c0.1-1.1-0.3-2.2-1.1-3c-1-0.8-2.2-1.3-3.5-1.2c0.6,0.2,1,0.3,1,0.5c0,0.2-0.2,0.3-0.4,0.3
	c-0.2,1.4-0.5,2.8-0.9,4.2c-0.2,1.3-0.7,2.5-1.4,3.5c-0.4,0.7-1.2,1.1-1.9,1.2c-0.8,0-1.5-0.3-2-0.8c-0.9-1.1-1.4-2.5-1.3-3.9
	c0-1.7,0.7-3.4,2-4.6c1.3-1.3,3-2,4.9-2C157.6,4.2,159.2,4.7,160.6,5.7z M152.2,13.5c0.4,0,0.8-0.3,1.1-0.9c0.8-2.2,1.3-4.4,1.5-6.7
	c-1.3,0.1-2.4,0.8-3.1,1.9c-0.6,0.9-0.9,1.9-0.9,3c-0.1,0.9,0.1,1.7,0.7,2.4C151.7,13.4,152,13.5,152.2,13.5z"/>
<path class="st0" d="M172.5,3.2c-0.1,0.1-0.1,0.2-0.3,0.3V5h5.5v1.8H167V11c0,0.7,0,1.4-0.1,2.1c-0.1,1.6-0.7,3.1-1.6,4.4l-1.3-1.4
	c0.2-0.3,0.4-0.6,0.6-0.9c0.6-1.3,0.9-2.6,0.9-4V5h5V2.9h1.7C172.4,2.9,172.6,3,172.5,3.2z M172.9,8c0,0.1,0,0.1,0,0.2
	s-0.1,0.1-0.3,0.1l-2.4,6.3c1.5,0,3.1-0.1,4.6-0.4l-2-2.8l1.5-1c1.5,1.8,2.8,3.7,3.9,5.7l-1.7,1.2c-0.4-0.5-0.6-1-0.9-1.5l-7.6,0.8
	c0,0.2-0.2,0.3-0.3,0.4c-0.2,0.1-0.3-0.1-0.4-0.4l-0.6-2h1.6l2.5-7.5l1.6,0.5C172.6,7.7,172.8,7.8,172.9,8z"/>
<path class="st0" d="M183.1,3.7v3h1.6v1.6h-1.6v3.6l1.4-0.5l0.3,0.8c0.3-0.2,0.6-0.4,0.9-0.6c0.3-0.3,0.6-0.7,0.8-1.1h-2.1V9h9.4
	v1.5h-5.6l-0.3,0.5h5.6l-0.5,4.9c0,0.2,0,0.3-0.1,0.5c0,0.5-0.5,0.8-1.5,0.8h-1.6l-0.2-1.7h1.3c0.1,0,0.2,0,0.2-0.1
	c0.1-0.1,0.1-0.2,0.1-0.3l0.4-2.7h-0.3c-0.2,0.7-0.6,1.4-1,2.1c-1.4,1.7-3.4,2.8-5.6,3l-0.4-1.7c2.8-0.3,4.5-1.5,5.2-3.4H189
	c0,0.2-0.1,0.4-0.2,0.5c-0.4,0.8-1,1.4-1.8,1.8c-0.7,0.4-1.5,0.7-2.3,0.8l-0.5-1.3c0.8-0.1,1.5-0.4,2.2-0.8c0.4-0.2,0.7-0.6,0.9-1
	h-0.5c-0.6,0.7-1.3,1.2-2.1,1.5l-0.6-0.8l-3.5,1.6c-0.2,0.5-0.4,0.5-0.7,0l-0.7-1.6l2.1-0.7V8.3h-1.9V6.7h1.9V3.2h1.5
	C183.4,3.3,183.4,3.4,183.1,3.7z M192.2,8.5h-6.9V3.3h6.9V8.5z M187,4.8v0.5h3.5V4.8H187z M187,6.6v0.6h3.5V6.6L187,6.6z"/>
<path class="st0" d="M200.7,11.7V8.6h3.1v3.1L200.7,11.7z"/>
<path class="st0" d="M224.3,16.9h-1.7v-0.5h-9.5v0.7h-1.7V3.6h12.9V16.9z M213.1,5.2v9.7h1.1l-0.8-1.5c1.2-0.4,2.4-1,3.4-1.8
	c-1-0.6-2.1-1.1-3.2-1.5l1.2-1.2c1.1,0.4,2.2,0.8,3.2,1.4c1.1-1.5,1.9-3.1,2.6-4.9l1.3,0.5c0.4,0.3,0.6,0.5,0.4,0.6
	c-0.1,0.1-0.2,0.1-0.4,0.1c-0.6,1.6-1.4,3-2.3,4.4c1,0.5,1.9,1.2,2.8,1.9l-1.2,1.5c-0.9-0.8-1.8-1.4-2.9-2c-0.5,0.5-1.1,1-1.8,1.4
	c-0.6,0.4-1.3,0.8-2,1h8V5.2h-4.9c0.6,0.7,1.2,1.6,1.6,2.4l-1.4,0.9c-0.4-0.8-1-1.6-1.6-2.4l1.3-0.9L213.1,5.2z M213.9,6.7l1.3-0.8
	c0.1,0.1,0.2,0.2,0.3,0.3c0.5,0.7,1,1.4,1.3,2.1l-1.4,0.7C215,8.2,214.5,7.4,213.9,6.7z"/>
<path class="st0" d="M234.3,3.3v0.6h4.2v1.7h1.9v1.3h-1.9v1.7h-4.2V9h4.5v1.3h-4.4v0.4h6.3v1.3h-14.4v-1.4h6.3v-0.4h-4.4V9h4.4V8.6
	h-4.4V7.4h4.4V6.9h-6V5.6h6V5.1h-4.4V3.9h4.4V2.8h1.5C234.5,2.8,234.6,3,234.3,3.3z M238.3,17.1h-1.7v-0.3h-6.5v0.5h-1.7v-4.6h9.9
	V17.1z M230.1,13.7v0.4h6.5v-0.4L230.1,13.7z M230.1,15.2v0.4h6.5v-0.4H230.1z M234.3,5.6h2.5V5.1h-2.5V5.6z M234.3,7.4h2.5V6.9
	h-2.5V7.4z"/>
<path class="st0" d="M246.4,3.4c0,0.1,0,0.1-0.1,0.2c0,0.1-0.1,0.1-0.2,0.1c0.7,0.6,1.3,1.2,1.9,1.8V4.8h3.3V3.1h1.5
	c0.5,0,0.6,0.2,0.2,0.5v1.2h3.4v3h-1.5v3.8h-1.6v-0.3h-2.6v0.9h4.6V17h-1.6v-0.4h-3.1v0.7h-1.6V7.9h-1.2v4.8H247c0.7,1,1.4,2,1.9,3
	l-1.5,0.9l-0.5-1l-4,1.2c-0.2,0.5-0.4,0.5-0.6-0.1l-0.6-1.5l1.1-0.2V8.7l-0.5,0.5l-1.1-1.4c0.9-0.8,1.7-1.7,2.3-2.7
	c0.5-0.7,0.8-1.4,1-2.2l1.4,0.2C246.2,3.2,246.3,3.3,246.4,3.4z M244.1,7.4h0.6V6.5C244.5,6.8,244.3,7.1,244.1,7.4L244.1,7.4z
	 M244.5,8.9v0.5h1.9V8.9H244.5z M244.5,10.8v0.5h1.9v-0.5H244.5z M244.5,12.8v2l1.8-0.4l-0.6-1l1-0.6L244.5,12.8z M245,6h1.3
	l-0.9-0.9C245.2,5.4,245.1,5.7,245,6L245,6z M246.4,6.4v1h1.6V6.1l-0.5,1.1l-0.9-1C246.5,6.3,246.4,6.3,246.4,6.4L246.4,6.4z
	 M249.7,6.3v1h4.9v-1H249.7z M250.7,8.7v1h2.5v-1H250.7z M250.7,13.6v1.5h3v-1.5H250.7z"/>
<polygon class="st1" points="70.5,112.1 107.8,112 107.2,177.9 70.3,177.3 "/>
<g>
	<defs>
		<rect id="SVGID_1_" x="3.1" y="25.1" width="287" height="351.5"/>
	</defs>
	<clipPath id="SVGID_2_">
		<use xlink:href="#SVGID_1_"  style="overflow:visible;"/>
	</clipPath>
	<g class="st2">
		<path class="st1" d="M14.3,29.6l9.5-2.4c0,0,1.2,16.6,1.2,22.1s-0.4,22.5-1,28.3s-2.9,22.9-4.2,30.1s-2.2,11.2-2.2,11.2l-10.1-2.7
			c0,0,3.1-16.1,3.8-22.6s2.6-22.2,2.9-28.2s0.6-15.3,0.6-20.6S14.3,29.6,14.3,29.6"/>
		<path class="st1" d="M5.2,124c0,0,2.4,0.4,4.7,0.9s5.9,1.7,5.9,1.7s-3.3,14.2-4.6,17.8S1.9,168.2-4,179.2s-20.7,36.2-29.6,47.1
			s-25.5,30.4-38,38.9S-98.9,278-98.9,278l-1.8-10.6c0,0,9-2.4,14.9-6.3c5.9-3.9,22.2-15.9,38.7-36.6s24.5-33.5,28.9-41.4
			s14.9-33,17.1-39.4S5.2,124,5.2,124"/>
		<path class="st3" d="M-579.4,449.2l65.1,89.1l12.6,11.6l19.6,24.7c0,0,27.7-19.7,29.8-20.5c2.1-1,14.3-7.8,16.6-8.4
			c2.2-0.6,17.3-12,18.1-12.5s20.3,13.7,20.3,13.7s5.5,26.7,5.5,27.6s2.1,33,1.8,34c-0.1,1,9.6,30.8,9.7,32.2
			c0.1,1.2-22.3,169.8-22.3,169.8s157.9,20.2,159,20.1S-84.8,831-84.8,831h9.2c0,0,134.7-21,143.2-24.8s17.3-3.6,48.6-11.7
			c136-65.2,212.7-128.1,238.2-149.4c23.1-22.6,95.7-95.4,95.7-95.4l-11-6.9l9-16.4l8.2-5.6L474.4,346l-10.9,0.7l12.2-104.1
			l0.8-38.3l-3.1-46.6l17.5-14.1V91.9l2.5-20.1l63.9-8.2l2.1,3.5l95.8,0.9l78.1-209l-7.6-4L620-133.9L498.5-81.5L333.9-53.7
			l-78.7,21.3l-79.4,17.7L5.6,20.6L1.7,10.2l-313.5-73.6l-60.4,303.1l-41.6-12.1l12.8,90.1l-10.2,8.7l-21.1-5.6
			c0,0-85.5,24-97.9,32.1s-53.4,41-53.4,41l-8.1,26.5L-478.7,572"/>
		<path class="st4" d="M-366.1,227.2l78.4,18.5l0.2-1l0.1-0.6l0.6,0.1l1.5,0.4c15.2,3.5,137,31.8,155.3,35.3c3,0.6,6,0.8,9.1,0.8
			c9,0,18.7-2.1,27.4-5s16.2-6.8,20.9-10.3l0,0c23.7-17.7,43.9-44.1,59-69.7s25-50.3,28.1-64.4l0,0C22.2,97,24.6,74.8,24.6,55
			c0-12.6-1-24.3-2.2-37.6l1.1-0.1c1.2,13.3,2.2,25,2.2,37.7c0,20-2.4,42.3-10.2,76.6l0,0c-3.2,14.3-13.1,39-28.3,64.8
			s-35.4,52.2-59.3,70l0,0c-4.8,3.6-12.4,7.5-21.2,10.5s-18.6,5.1-27.7,5.1c-3.1,0-6.2-0.3-9.3-0.8c-19.6-3.8-156.9-35.7-156.9-35.7
			l0.1-0.6l0.5,0.1l-0.3,1.6l-0.1,0.6l-79.5-18.8L-366.1,227.2"/>
		<path class="st4" d="M-363,228l1.8-7.3l74.8,11l0,0l1.6,0.4c8,1.9,44.1,10.4,78.8,18.6c17.3,4.1,34.3,8,47.2,11
			c6.4,1.5,11.9,2.7,15.8,3.6l4.8,1.1c1.2,0.3,2,0.4,2.2,0.4c1.7,0.2,4.7,0.8,8.4,1.3c4.1,0.6,8.2,1,12.3,1c3.2,0,6.5-0.3,9.7-1
			c8-1.8,15.5-5.1,22.3-9.6c6.5-4.3,12.5-9.7,19.5-16.6c17.9-17.5,41.4-48.5,51-71.3c8.3-19.7,20.9-44,25.2-89.6
			c1.3-14.3,1.8-25.7,1.8-34.6c0.1-7-0.3-14-1.1-21c-0.3-2.2-0.5-3.8-0.8-4.8c-0.1-0.5-0.2-0.9-0.3-1.1s0-0.2-0.1-0.3v-0.1l1-0.3
			c0,0.1,2.2,7.9,2.2,27.6c0,9-0.5,20.4-1.8,34.7c-4.3,45.7-17,70.3-25.2,89.9c-9.7,23-33.3,54.1-51.3,71.7
			c-7,6.9-13.1,12.4-19.7,16.7c-6.9,4.6-14.6,7.8-22.6,9.6c-3.2,0.7-6.6,1.1-9.9,1c-4.2,0-8.3-0.4-12.5-1c-3.7-0.5-6.7-1.1-8.3-1.3
			c-0.3,0-1.2-0.2-2.5-0.5c-19.8-4.3-148-34.6-148-34.6l0.1-0.6l-0.1,0.6l-73.9-10.8l-1.6,6.3L-363,228"/>
		<path class="st3" d="M-100.6,267.7c2.4,16.8,3.7,17.8,8.6,17c4.7-0.8,12.7-4.4,18.1-8c5.4-3.4,43.3-36.7,60.7-66.2
			s31.1-62.2,34.7-75.6c2.6-7.4-7.9-9.5-16.2-10.9"/>
		<path class="st4" d="M7.7,115.7c6.3,1.9,10.3,3,12.8,3c1.1,0.1,2.1-0.2,3-0.8c0.9-0.7,1.5-1.7,1.9-2.8l0.5,0.2l-0.5-0.2
			c0.4-1.2,0.7-2.4,0.9-3.6c2.4-12.1,5.7-46,6-50.3l0,0c0.2-2,0.3-6.3,0.3-11c0-6.7-0.2-14.1-0.4-16.8c-0.1-1.7-0.8-3.3-2.1-4.5
			c-1.1-0.9-2.5-1.5-3.9-1.5h-0.5c-2.3,0.3-4.6,0.8-6.8,1.5c-1.2,0.3-2.4,0.6-3.2,0.9l-1.4,0.4L14.2,29c0,0,2.1-0.6,4.6-1.3
			c2.3-0.7,4.6-1.1,7-1.5h0.6c1.7,0,3.3,0.6,4.6,1.7c1.5,1.4,2.4,3.3,2.5,5.3c0.2,2.8,0.4,10.2,0.4,16.9c0,4.7-0.1,9-0.3,11.1
			L33,61.2h0.5c-0.2,2.5-1.3,14.6-2.8,26.8c-0.7,6.1-1.5,12.2-2.2,17.2c-0.4,2.5-0.7,4.7-1.1,6.4c-0.2,1.3-0.6,2.6-1,3.9l0,0
			c-0.5,1.3-1.3,2.4-2.3,3.3c-1.1,0.7-2.3,1.1-3.6,1c-2.8,0-6.9-1.1-13.1-3L7.7,115.7"/>
		<path class="st3" d="M-236.7,566.9l-0.8,31.7l-133.6-4.3l-20.3,212.1l173.3,17.9c0,0,7-242.8,6.6-248.1s-2.4-7.6-9.2-8.4
			s-30.8-1.9-30.8-1.9l0.8-8.7c0,0,351.8,21.7,362.9,22.2s11.1-6.8,10.1-12.6s1.3-333.5,0.7-342c-0.6-8.3-4.2-7.4-11-7.5
			s-60.1-1.4-66.8-0.8s-7.5,5.1-7.7,12.4c0,7.2,0.5,31.2,0.5,31.2l-8.4-0.3"/>
		<path class="st3" d="M154.4,774.9c-10.7,6.2-15.7,0.5-16.4-3.5s0-4.9,0-4.9l-4.6,0.4c0,0,0.2-90-0.1-96.6
			c-0.1-6.6,5.3-7.5,8.6-7.4s77.7,4.2,77.7,4.2s26.2-22.5,29.6-25.5s3.3-6.9,3.2-9.2c-0.2-2.5-0.3-122.2,0.1-131
			c0.3-8.8,1.8-10.3,10-10.2s168.3,2.5,174.6,2.4s8.3-2.1,8.7-10.9c0.3-8.8,18.1-241,18.1-241l0.1-104c0,0-1.2-60.6-1.9-69.3
			s7.1-15.2,12.2-16.4c5.2-1.2,48.2-8,57.5-8.8c11.1-1.2,22.1-3,33-5.3c4.5-1.2,16-4.5,20.9-4.9s27.9-0.2,37.2,1.7s22,5.2,24.7,6.7
			s1.2,3.8,0.1,6.2s-3.4,6-5.5,5.3s-6.7-6.1-8.5-8.5s-2.4-5.5-1.5-7.3"/>
		<path class="st3" d="M640.1,17l1.4-3.2l12.1-4.5c1.9-0.7,4-0.2,5.4,1.3c1.8,2.4,2.5,1.7,1.1,5.4s-1.7,3.9-2.5,5.7
			s-0.7,0.8-2.5,0.6c-2-0.2-24.3-8.7-30.5-8.9s-31.4-3.2-51.9,0.5s-43.3,8.9-54.2,11.2c-11,2.3-48.6,7.2-61,8.3s-27.1-7.1-31.1-16.9
			s-4.8-15-0.3-16.4l3.1,9.5l43.1-11.7l-14.6-61.2l-54.3,15.3l2.8,10.3c-4.1-5.5-15.9-15.8-42.4-10.5S221.5-17.6,221.5-17.6
			L137.2,8.1l-0.5-6.2l6.5-9.3"/>
		<path class="st3" d="M118.6-2.7l6,6.5l-0.1,8c0,0-71.9,11.9-78.8,12.9s-5.6-1.7-6.6-4.3c-0.6-1.4-0.3-3,0.6-4.1L14.3,22
			c-1.6,0.5,0.9-0.3-1.1,0.3"/>
		<path class="st3" d="M366.8,6.6c0,0-0.2,2.5,1.1,2.4s16.3-0.6,25.6-1.4c9.1-0.8,9.5-8.2,9.8-9.2s-3.5-14.8-5.6-24
			c-2.3-9.2-13.4-12.1-25-10.4C361-34.1,233.1-6.3,226.4-5c-6.9,1.4-8.6,2.1-8.9,8.2c-0.3,5.9,0,17.4-0.1,21.3
			c-0.1,2.8,2.1,5.1,4.9,5.2c0.3,0,0.5,0,0.8,0c2.4-0.2,40,0.1,40,0.1l0.1,5.9l-2.5,0.6l-0.1,47.4l-2,0.2"/>
		<path class="st4" d="M388.2,110.3c0,0,0-0.7,0.1-1.8s0.1-2.7,0.1-4.5c0-2.3,0-4.9-0.2-7.3c-0.1-0.7-0.1-1.3-0.1-1.9
			c-0.1-1.8,0.3-3.6,1.1-5.2c0.7-1.2,1.9-2,3.3-2.2c0.7-0.2,3.7-1,7.8-2.1c12.5-3.4,35.5-9.9,39.9-11.3l0,0c0.9-0.3,1.9-0.5,2.9-0.5
			c0.9,0,1.8,0.2,2.6,0.7c1.1,0.8,1.8,1.9,2.2,3.3c0.4,1.6,0.7,3.2,0.8,4.8c0.1,1.4,0.2,5.6,0.4,11.1c0.4,16.3,0.8,44.3,0.8,44.3
			l0,0c0,0,0.3,31,0.4,39.4l0,0c0,1.3-0.2,2.5-0.6,3.7c-0.4,1.2-1.2,2.3-2.4,2.9c-1,0.4-2.1,0.6-3.1,0.6c-0.9,0-1.8-0.1-2.5-0.1
			h-0.6h-3.1c-30.9,0-286.8-1.8-300-1.8h-0.4c-1.2,0-2.5-0.3-3.6-0.9c-1.3-0.8-2.3-2.1-2.7-3.5c-0.4-1.4-0.6-2.8-0.6-4.2
			c0-1.3,0.1-2.4,0.1-3l0,0c0-0.3,0-1.6,0.1-3.7c0.1-7.3,0.2-23.9,0.4-38.6c0-7.4,0.1-14.3,0.1-19.3c0-2.5,0-4.6,0-6s0-2.3,0-2.3
			v-0.6l121.4,0.4l-0.2-14.8l1.9-0.9l-0.6-8.2l4.4,0.1l1.1,9.2l-1.1,0.1l-1-8.2l-2.2-0.1l0.6,7.7l-2,1l0.2,15.2l-122-0.5v-0.6h0.5
			c0,0-0.1,16.8-0.3,34c-0.1,8.6-0.1,17.3-0.2,23.9c0,3.3-0.1,6.2-0.1,8.3s-0.1,3.4-0.1,3.8h-0.5h0.5c0,0.7-0.1,1.7-0.1,3
			c-0.1,1.7,0.3,3.4,1,5c0.4,0.7,1,1.3,1.7,1.8c0.9,0.5,2,0.8,3.1,0.8l0,0h0.4c13.2,0,269.1,1.9,300,1.9h3c0.2,0,0.4,0,0.6,0
			c0.8,0,1.6,0.1,2.5,0.1c1.2,0.1,2.4-0.3,3.4-1c0.5-0.5,0.9-1.1,1.1-1.8c0.3-1.1,0.5-2.2,0.5-3.3l0,0c0-4.2-0.1-14-0.2-22.9
			s0-16.7,0-16.7l0,0c0,0,0-0.8,0-2.1c-0.1-4.8-0.3-16.9-0.5-28.3c-0.1-5.7-0.2-11.3-0.4-15.8s-0.2-7.8-0.3-9c0-1.9-0.4-3.8-1.2-5.6
			c-0.6-1.3-1.9-2.1-3.3-2c-0.9,0-1.7,0.2-2.6,0.4l0,0c-3,0.9-14.2,4.1-25,7.2c-5.4,1.5-10.8,3-14.9,4.1s-7.1,1.9-7.9,2.1
			c-1.1,0.2-2,0.8-2.6,1.7c-0.7,1.4-1.1,3-1,4.6c0,0.6,0,1.2,0.1,1.8c0.2,2.4,0.2,5,0.2,7.3c0,3.6-0.1,6.4-0.1,6.4l-1.1-0.1"/>
		<path class="st3" d="M136.2,53.8c60,0.8,73.8,0.8,73.8,0.8l2.4-1.6c0,0,0.8-37.7,0.5-45.1c-0.2-7.4-4.3-8-8.4-6.7
			s-56.9,16-63.2,18.2c-6.4,2.3-4.5,5.7-5.1,10.6S136.2,53.8,136.2,53.8z"/>
		<path class="st3" d="M149.5,192.2c-17.4-0.3-14.1,0.2-14,8.6c-0.1,8.4-0.2,46.5,0.3,55.4c0.3,9,4.7,5.9,10,6.2
			s288.8,2.9,296.7,2.4s6.8-4.1,7.2-9c0.4-4.9,0.4-46.5-0.2-54.1s-3.1-7.3-10.6-7.5S149.5,192.2,149.5,192.2z"/>
		<path class="st3" d="M-195.8,363.6c-19.1,14.4-31.3,36.1-33.8,59.9c-1.5,14.4,2.1,55.5,34.2,79.5c12.4,9.5,26.9,14.5,33.5,14.5
			c6.6,0.2,170.4,15.6,200,16.6c25.2,0.8,58.5-16.5,72.4-53.6s1.6-71.8-18.8-94l20.5,1.4l1.5-19.3l-308-24.5L-195.8,363.6z"/>
		<path class="st3" d="M-148,367c-85.7,3.8-78.5,124.4-8.1,131.9c61.7,6.7,123.2,10,189.6,15c71,5.3,91.6-117.1,11-129.8
			C-25.7,373-148,367-148,367z"/>
		<path class="st4" d="M10,187.2l41.6,21.6l-0.2,0.5v-0.6l5.3,0.1c9.9,0.2,31.5,0.5,46.3,0.5c5.3,0,9.7,0,12.4-0.1l0,0
			c1.4,0,2.7-0.2,4-0.7c1.3-0.5,2.3-1.5,2.9-2.8c0.5-1.4,0.7-2.8,0.7-4.3c0-2.1-0.3-4.4-0.3-6.6l0,0v-0.1c0-1.5,0-10.6,0-23.7
			c0-21.6,0-54.4,0.1-83c0.1-14.3,0.1-27.6,0.3-37.9s0.3-17.6,0.5-20.2c0-0.5,0.1-1,0.1-1.5c0-2.5-0.6-3.9-1.4-4.8
			c-1-0.9-2.3-1.3-3.7-1.2c-1.9,0.1-3.9,0.4-5.7,1c-2,0.5-3.9,1.2-5.4,1.5l-0.1-0.6l0.1,0.6c-1.5,0.3-5.3,0.9-10.3,1.7
			c-15,2.3-41.3,6-48.8,7.4c-2.9,0.5-4.6,1.5-5.5,2.6c-0.9,1.2-1.3,2.7-1.2,4.2c0,1.9,0.3,4,0.3,6.3c0,0.4,0,0.8,0,1.2
			c-0.2,3.3-0.3,14.1-1.1,27s-2.1,28-4.8,40c-5.4,24-20.9,66.8-35.8,91.6c-6.1,10.1-16.4,24.1-30,40.5c-7.9,9.2-16.5,17.8-25.6,25.8
			c-4.6,4-9,7.7-13,10.7c-3.1,2.4-6.5,4.6-10,6.4l0,0c-13.4,6-31.2,7.2-43.1,7.2c-4.2,0-7.7-0.1-10-0.3c-5-0.7-10.1-1.7-15-3
			c-10.8-2.5-25.4-6.1-38.3-9.3s-24-5.9-27.9-6.6l0,0c-1.2-0.2-2.4-0.3-3.7-0.3c-7.9,0-13.1,5-14.5,10.7l0,0
			c-0.2,0.8-0.7,3.2-1.4,6.6c-2.4,12.1-7.3,37.9-11.6,60.6c-2.1,11.4-4.1,22-5.6,29.7l-1.7,9.3l-0.6,3.4l-0.5-0.1l0.5-0.1l17.4,79.5
			l0,0c2.1,10.2,3.1,20.6,3.2,31c0,4.1-0.2,8.2-0.7,12.3c-0.3,2.4-0.5,4.8-0.6,7.2c0,4.4,0.9,9.2,3.8,16.7l0,0
			c3,7.4,4.7,13.3,4.7,13.3l-1,0.3l-0.3-1c-0.6-2-2.1-6.7-4.3-12.2l0,0c-3-7.6-3.9-12.5-3.9-17.1c0-2.4,0.2-4.9,0.6-7.3
			c0.5-4,0.7-8.1,0.7-12.2c0-7.2-0.6-14.3-1.6-21.4c-0.4-2.8-0.8-5.2-1.1-6.8c-0.1-0.8-0.3-1.5-0.4-1.9l-0.1-0.7l-17.5-79.6v-0.1
			c0,0,4.8-25.7,9.8-52.3c2.5-13.3,5.1-26.8,7.1-37.4c1-5.3,1.9-9.9,2.6-13.3s1.2-5.8,1.4-6.7l0.5,0.2l-0.5-0.1
			c1.5-6.2,7.2-11.5,15.6-11.5c1.3,0,2.6,0.1,3.9,0.4l0,0c2.6,0.5,8.4,1.8,15.9,3.6c11.1,2.7,25.8,6.4,38.5,9.5
			c6.4,1.5,12.2,2.9,16.9,4c3.2,0.8,6.5,1.4,9.8,1.8c2.3,0.2,5.7,0.3,9.9,0.3c11.9,0,29.6-1.3,42.7-7.1l0,0c3.5-1.8,6.7-3.8,9.8-6.3
			c14-10.8,26.9-23,38.4-36.4c13.6-16.4,23.9-30.3,29.9-40.3c14.8-24.6,30.3-67.5,35.6-91.3c2.7-11.9,4-26.9,4.8-39.8s0.8-23.6,1-27
			c0-0.4,0-0.8,0-1.2c0-2.2-0.3-4.3-0.3-6.3c-0.1-1.8,0.4-3.5,1.4-4.9c1.1-1.4,3-2.4,6.1-3c5.1-0.9,18.4-2.9,31.2-4.8
			c6.4-0.9,12.7-1.9,17.7-2.6c5-0.8,8.8-1.4,10.2-1.7l0,0c1.4-0.3,3.3-0.9,5.3-1.4c1.9-0.6,4-1,6-1c1.6-0.1,3.2,0.5,4.4,1.5
			c1.2,1.2,1.8,3,1.8,5.6c0,0.5,0,1-0.1,1.6c-0.2,2.4-0.4,9.8-0.5,20.1c-0.4,30.9-0.4,88.4-0.4,120.9v23.8l0,0c0,2,0.3,4.4,0.3,6.6
			c0.2,2.1-0.4,4.3-1.6,6.1c-0.7,0.9-1.6,1.6-2.7,2c-1.4,0.5-2.8,0.8-4.3,0.8v-0.6v0.6c-2.7,0.1-7.1,0.1-12.4,0.1
			c-19.8,0-51.7-0.6-51.7-0.6h-0.1L9.6,188.2L10,187.2"/>
		<path class="st3" d="M243.3,481c0,0,175.2,1.5,182.2,1.4s9.1-0.4,9.4-6.5c0.3-5.9,12.4-182,14.3-191.1c1.5-7.2-4.1-10.2-9.9-9.7
			s-286.1-1.5-295.5-1.9c-9.6-0.2-8,3.4-8.4,10.9s-0.8,102.3-0.5,111.5c0.3,9,5.9,7.5,10.7,7.9c5,0.4,38.7,0.6,38.7,0.6l-0.7,12.4"
			/>
		<polygon class="st4" points="89.9,40.5 55.9,39.4 55.8,94.8 43.3,94.5 43.5,124.2 35.9,135.5 31.9,199.1 26.4,213.2 26,235.4 
			24.9,235.3 25.3,212.9 30.8,198.8 34.9,135.1 42.5,123.8 42.2,93.3 54.7,93.7 54.8,38.2 89.9,39.4 		"/>
		<line class="st3" x1="7.8" y1="192.7" x2="28.8" y2="204"/>
		<line class="st3" x1="58.9" y1="32.1" x2="59" y2="38.5"/>
		<line class="st3" x1="66.7" y1="31" x2="67.2" y2="38.6"/>
		<path class="st5" d="M28.3,141.2c-1,21-2.8,28.5-2.8,28.5s-5.7,27.4-14.4,43.4s-17.1,36.2-18.7,43.9c-1.6,7.8-1.9,6.8-1.9,13.8
			s0.3,60.3,0.4,61.8s-220-17.3-220-17.3l-11.7,61.5l-5.1-1.3l12.9-66.1l223.7,17.4"/>
		<path class="st6" d="M60.5,308.7c5.2,0.1,4.8,0.6,4.8,0.6L64.7,324l44.6-4.6l0.1-13.3H97.5l0.2-7.4"/>
		<polyline class="st7" points="122.9,263 103.3,262.9 102.8,281.9 123,282.3 		"/>
		<line class="st8" x1="115.2" y1="262.9" x2="115.3" y2="282"/>
		<line class="st8" x1="116.6" y1="263" x2="116.8" y2="282.1"/>
		<line class="st8" x1="118.1" y1="263.2" x2="118.3" y2="282.3"/>
		<line class="st8" x1="119.6" y1="263.1" x2="119.7" y2="282.2"/>
		<line class="st8" x1="120.9" y1="263.2" x2="121" y2="282.3"/>
		<polyline class="st6" points="183.9,409.1 223.5,409.5 223.3,406.6 281.3,407.3 281.8,333.3 164.2,333.1 		"/>
		<path class="st6" d="M292.4,274l-0.2,48.6l-16.9-0.5l0.2,2.5l-111-0.4l0.2,13.1l-9.9,0.1c0,0-0.2,17.6-0.6,24.6
			c-0.2,7-3.5,5.2-5.3,5.3c-1.2,0.1-2.3,0.1-3.5-0.1l0.1,10.5l-5.3,0.5l-0.2,12.7l5.3-0.5l0.2,12.7"/>
		<polyline class="st6" points="171.8,333.4 171.7,337.5 218,338.1 		"/>
		<line class="st6" x1="218.4" y1="333.4" x2="218.6" y2="349.4"/>
		<polyline class="st3" points="233.2,333.5 233.3,349.5 216.1,349.6 216.1,360.1 212.7,360.2 212.7,370.8 210.5,370.9 210.6,381.1 
			200.6,381 		"/>
		<polyline class="st6" points="342.7,369.9 342.9,363.8 289.9,363.1 290.1,407.7 295,407.5 294.8,413.8 329.3,414.6 329.1,433.9 		
			"/>
		<polygon class="st4" points="222.6,24.8 221.9,24.8 222.2,-1.3 244.6,-1.3 244.5,-7.3 254,-7.2 253.7,-0.9 294.2,-0.7 306.6,-4.2 
			304.7,-12 311.7,-14.3 314,-6 331.6,-10.6 328.6,-23.4 363.6,-33.7 366.8,-22.7 361.1,-20.7 361.6,-19 375.6,-22.8 377.1,-17.4 
			391.4,-21 396.8,-1 301.2,25.1 300.7,45.6 304.5,46.2 304.2,87.6 311,88.2 311.2,108.6 429.4,109.7 429.3,136.6 181.7,135 
			181.8,107.9 280.6,108.3 280.5,107.3 262.6,107 262.1,103.8 254.3,103.8 254.5,86.6 262.1,86.1 262.9,35.1 280.7,35.1 280.8,26.4 
			221.9,25.6 221.9,24.8 222.6,24.8 222.6,24.1 282.2,25 282.1,36.6 264.3,36.5 263.5,87.5 255.8,88 255.8,102.3 263.4,102.3 
			263.8,105.6 281.8,105.8 282.1,109.8 183.2,109.4 183.1,133.5 427.9,135.1 428,111.2 309.8,110.1 309.6,89.5 302.7,88.9 
			303.1,47.5 299.2,46.8 299.8,23.9 395.1,-2.1 390.4,-19.2 376.2,-15.6 374.7,-21 360.7,-17.2 359.3,-21.6 365,-23.7 362.7,-31.8 
			330.3,-22.3 333.3,-9.5 313,-4.2 310.8,-12.4 306.4,-11 308.2,-3.1 294.4,0.8 252.3,0.5 252.5,-5.7 245.9,-5.8 246,0.2 223.6,0.2 
			223.3,24.8 222.6,24.8 222.6,24.1 		"/>
		<polygon class="st4" points="182.4,102.6 183.1,102.6 183.3,135.1 173.4,135.2 173.5,142 132.2,142.1 132.4,101.5 183.1,101.9 
			183.1,102.6 182.4,102.6 182.4,103.3 133.8,103 133.6,140.6 172.1,140.5 172,133.7 181.9,133.7 181.7,102.6 182.4,102.6 
			182.4,103.3 		"/>
		
			<rect x="171.9" y="103.4" transform="matrix(1 -3.316120e-03 3.316120e-03 1 -0.3932 0.5731)" class="st4" width="1.4" height="30.8"/>
		<polyline class="st7" points="222.6,19.2 218.8,19.9 219.1,24.7 222.3,25.1 		"/>
		<polygon class="st7" points="155.8,20.9 155.9,50.2 209.3,50.9 209.5,21.4 185.8,21.1 185.7,23.7 179.6,23.6 179.8,21 		"/>
		<line class="st7" x1="155.9" y1="27" x2="208.7" y2="27.4"/>
		<polygon class="st4" points="136.7,158 137.4,158 137.6,177.7 253.5,179.1 254,153.8 174.6,153.8 174.8,158.5 136.7,158.7 
			136.7,158 137.4,158 136.7,158 136.7,157.3 173.3,157 173.2,152.3 255.5,152.3 254.9,180.6 136.2,179.2 136,157.3 136.7,157.3 		
			"/>
		<polygon class="st4" points="263.2,153.1 263.9,153.1 263.9,179 279.4,179.3 279.9,154.3 263.2,153.9 263.2,153.1 263.9,153.1 
			263.2,153.1 263.2,152.4 281.4,152.9 280.7,180.8 262.5,180.4 262.5,152.4 263.2,152.4 		"/>
		<polygon class="st4" points="268,141.4 268.7,141.4 268.5,150.3 275.2,150.3 275.3,142.1 268,142.2 268,141.4 268.7,141.4 
			268,141.4 268,140.7 276.8,140.6 276.6,151.8 267.1,151.7 267.3,140.7 268,140.7 		"/>
		<polygon class="st4" points="90.7,38.3 90.7,37.6 120.9,37.4 120.6,52.4 111.3,52.6 110.9,91.7 89.7,91.4 90,37.6 90.7,37.6 
			90.7,38.3 91.4,38.3 91.1,89.9 109.5,90.2 109.9,51.2 119.2,50.9 119.5,38.9 90.7,39.1 90.7,38.3 91.4,38.3 		"/>
		<polygon class="st4" points="57.6,44.9 58.3,44.8 58.7,56.8 78.6,57.3 78.4,45.5 57.6,45.6 57.6,44.9 58.3,44.8 57.6,44.9 
			57.6,44.1 79.8,44 80,58.8 57.3,58.2 56.9,44.1 57.6,44.1 		"/>
		<polygon class="st7" points="62.8,96.5 50.5,96.2 50.1,135.7 39.9,136.3 39.4,191.4 61.6,191.9 		"/>
		<polygon class="st7" points="65.2,99.1 64.8,188.1 114.6,188.4 115.4,99.1 		"/>
		
			<rect x="53.1" y="123.2" transform="matrix(3.141593e-03 -1 1 3.141593e-03 -55.8671 232.5181)" class="st7" width="71.3" height="42.2"/>
		<polygon class="st7" points="70.5,111.7 107.7,111.7 107.1,177.5 70.2,176.9 		"/>
		<polygon class="st7" points="102.9,268.2 98.9,268.2 99.4,223.8 41.3,223.9 41.2,263.7 29.2,263.3 29.2,235.6 3.1,235.3 
			3.2,331.9 60.1,332.7 60.6,298.5 99,298.8 98.8,277.1 102.5,277 		"/>
		<polygon class="st7" points="201.3,337.6 176.9,337.7 176.4,348.5 161,348.6 160.5,381.6 155.4,381.9 155.2,403.5 200,404.2 		"/>
		<polygon class="st4" points="138.2,278.9 138.2,278.1 283.1,279.4 283.4,312.1 221.9,311.8 221.6,322 204.7,322.2 204.6,312 
			136.9,311.3 137.5,278.1 138.2,278.1 138.2,278.9 138.9,278.9 138.3,309.8 206,310.5 206.1,320.7 220.3,320.5 220.6,310.3 
			282,310.6 281.7,280.9 138.2,279.6 138.2,278.9 138.9,278.9 		"/>
		<polygon class="st4" points="274.5,201.8 274.5,202.5 262.7,202.2 262.5,213.5 163.5,213.3 163.5,237.2 438.3,239.8 438.7,215.3 
			389.1,214.6 389.5,199.3 302,198.3 301.9,206.3 282.6,206 282.5,214 273.6,213.8 273.8,201.7 274.5,201.8 274.5,202.5 
			274.5,201.8 275.2,201.8 275,212.4 281.1,212.5 281.3,204.5 300.5,204.8 300.7,196.8 390.9,197.9 390.6,213.1 440.1,213.8 
			439.7,241.3 162.1,238.7 162.1,211.8 261.1,212 261.4,200.7 275.2,201 275.2,201.8 		"/>
		<line class="st6" x1="282.7" y1="193.3" x2="283" y2="205.1"/>
		<line class="st6" x1="283.1" y1="134.7" x2="283" y2="187"/>
		<polygon class="st4" points="172.6,107.8 178.2,107.7 178.2,130.5 172.9,130.5 172.9,129 176.8,129 176.8,109.2 172.6,109.3 		"/>
		<polygon class="st4" points="177.1,111.5 173.1,111.5 173.1,110.1 177.2,110.2 		"/>
		<polygon class="st4" points="177.1,113.7 173.1,113.6 173.1,112.3 177.1,112.3 		"/>
		<polygon class="st4" points="177.1,115.8 173.1,115.8 173.1,114.4 177.1,114.5 		"/>
		<polygon class="st4" points="177.1,118 173,117.9 173.1,116.6 177.1,116.6 		"/>
		<polygon class="st4" points="177.1,120.1 173,120.1 173,118.7 177.1,118.8 		"/>
		<polygon class="st4" points="177,122.3 173,122.2 173,120.9 177,120.9 		"/>
		<polygon class="st4" points="177,124.4 173,124.4 173,123 177,123.1 		"/>
		<polygon class="st4" points="177.2,126.6 173.1,126.5 173.1,125.1 177.2,125.2 		"/>
		<polygon class="st4" points="177.1,128.5 173.1,128.5 173.1,127.1 177.1,127.1 		"/>
		<path class="st9" d="M66.7,33.6c-7,0.2-7.7,0.3-7.7,0.3"/>
		<path class="st9" d="M66.7,34.9c-7,0.2-7.7,0.3-7.7,0.3"/>
		<path class="st9" d="M66.7,36.3c-7,0.2-7.7,0.3-7.7,0.3"/>
		<path class="st9" d="M67,37.6c-7.3,0.2-8,0.3-8,0.3"/>
		<polyline class="st7" points="51.9,208.9 51.9,203.4 113.3,203.7 114.1,209.3 		"/>
		<line class="st7" x1="106.9" y1="203.9" x2="107.3" y2="209.5"/>
		<line class="st7" x1="100.1" y1="203.8" x2="100.5" y2="209.5"/>
		<line class="st7" x1="93" y1="204.1" x2="93.4" y2="209.7"/>
		<line class="st7" x1="86" y1="203.9" x2="86.4" y2="209.5"/>
		<line class="st7" x1="79.2" y1="203.7" x2="79.6" y2="209.3"/>
		<line class="st7" x1="72.4" y1="203.5" x2="72.8" y2="209.1"/>
		<line class="st7" x1="65.5" y1="203.7" x2="65.9" y2="209.3"/>
		<line class="st7" x1="58.3" y1="203.5" x2="58.7" y2="209.1"/>
		<path class="st10" d="M29.5,198.1c-0.2,0.2-2,4.7-2,4.7"/>
		<path class="st10" d="M27.6,197.1c-0.2,0.2-2,4.7-2,4.7"/>
		<path class="st10" d="M25.7,196.1c-0.2,0.2-2,4.7-2,4.7"/>
		<path class="st10" d="M23.7,195.1c-0.2,0.2-2,4.7-2,4.7"/>
		<path class="st10" d="M22,194.1c-0.2,0.2-2,4.7-2,4.7"/>
	</g>
</g>
<g>
	<defs>
		<path id="SVGID_3_" d="M3.1,69.2v95.4c6-13.3,10-25,11.9-33.1c5.4-23.8,8.2-41.9,9.4-57.4v-4.9H3.1z"/>
	</defs>
	<clipPath id="SVGID_4_">
		<use xlink:href="#SVGID_3_"  style="overflow:visible;"/>
	</clipPath>
	<g class="st11">
		<path class="st12" d="M11.2,142.8H3.1v7h5.6C9.6,147.3,10.4,145,11.2,142.8"/>
		<path class="st13" d="M11.7,142.8h-0.6c-0.7,2.2-1.6,4.6-2.5,7h0.6C10.2,147.3,11,145,11.7,142.8"/>
		<path class="st14" d="M7.7,116.9c-0.4,1.7-0.8,3.3-1.2,4.9h10c0.2-0.8,0.3-1.6,0.5-2.4C14.6,118.9,11.6,118,7.7,116.9 M7,114.8H3
			v7h2.3C5.9,119.5,6.4,117.2,7,114.8"/>
		<path class="st12" d="M17.9,114.8H8.2c-0.1,0.3-0.2,0.7-0.2,1c3.9,1.2,7,2,9.3,2.5C17.5,117.1,17.7,115.9,17.9,114.8"/>
		<path class="st13" d="M17,119.4c-0.2,0.8-0.3,1.6-0.5,2.4h0.5c0.2-0.8,0.3-1.5,0.5-2.3L17,119.4 M18.5,114.8h-0.5
			c-0.2,1.1-0.5,2.3-0.7,3.5l0.5,0.1C18,117.1,18.3,115.9,18.5,114.8"/>
		<path class="st13" d="M8.2,114.8H7.1c-0.5,2.4-1.1,4.7-1.7,7h1.1c0.4-1.6,0.8-3.2,1.2-4.9l-0.2-0.1l0.3-1.1l0.2,0.1
			C8,115.4,8.1,115.1,8.2,114.8"/>
		<path class="st13" d="M7.7,115.7l-0.3,1.1l0.2,0.1c3.9,1.2,6.9,2,9.3,2.5l0.5,0.1c0.1-0.4,0.2-0.8,0.2-1.1l-0.5-0.1
			c-2.3-0.5-5.4-1.3-9.3-2.5L7.7,115.7"/>
		<path class="st14" d="M11.7,86.7H3.1v7h7.8C11.2,91.5,11.5,89.1,11.7,86.7"/>
		<path class="st12" d="M22.5,86.7h-9.7c-0.3,2.4-0.6,4.7-0.9,7h9.6C21.9,91.3,22.2,89,22.5,86.7"/>
		<path class="st13" d="M23.1,86.7h-0.5c-0.3,2.3-0.6,4.6-0.9,7h0.5C22.5,91.3,22.8,89,23.1,86.7"/>
		<path class="st13" d="M12.8,86.7h-1.1c-0.3,2.4-0.6,4.7-0.9,7H12C12.3,91.5,12.6,89.1,12.8,86.7"/>
		<path class="st12" d="M5.9,156.8H3.1v6.5C4.1,161,5,158.9,5.9,156.8"/>
		<path class="st13" d="M6.5,156.8H5.9c-0.9,2.1-1.8,4.3-2.8,6.5v0.6h0.3C4.5,161.4,5.5,159.1,6.5,156.8"/>
		<path class="st14" d="M3.4,128.8H3.1v1C3.2,129.4,3.3,129.1,3.4,128.8"/>
		<path class="st12" d="M15,128.8H4.5c-0.5,1.6-0.9,3.2-1.4,4.7v2.3h10.2c0.4-1.6,0.8-3.1,1.1-4.5l0,0
			C14.6,130.4,14.8,129.6,15,128.8"/>
		<path class="st13" d="M15.5,128.8H15c-0.2,0.8-0.4,1.7-0.6,2.5l0,0c-0.3,1.4-0.7,2.9-1.1,4.5h0.6c0.4-1.5,0.8-3,1.1-4.4
			C15.2,130.5,15.4,129.6,15.5,128.8"/>
		<path class="st13" d="M4.5,128.8H3.4c-0.1,0.3-0.2,0.7-0.3,1v3.7C3.6,131.9,4.1,130.3,4.5,128.8"/>
		<path class="st14" d="M9.8,100.7H3.1v7h5.4C9,105.5,9.4,103.1,9.8,100.7"/>
		<path class="st12" d="M20.5,100.7h-9.6c-0.4,2.4-0.8,4.7-1.3,7h9.6C19.7,105.3,20.1,103,20.5,100.7"/>
		<path class="st13" d="M21,100.7h-0.5c-0.4,2.3-0.8,4.6-1.2,7h0.5C20.3,105.3,20.7,103,21,100.7"/>
		<path class="st13" d="M10.9,100.7H9.8c-0.4,2.4-0.8,4.7-1.3,7h1.1C10.1,105.5,10.5,103.1,10.9,100.7"/>
		<path class="st14" d="M13,72.7H3.1v7h9.4C12.7,77.3,12.9,75,13,72.7"/>
		<path class="st12" d="M23.9,72.7h-9.8c-0.2,2.3-0.4,4.6-0.6,7h9.8C23.6,77.3,23.8,75,23.9,72.7"/>
		<path class="st13" d="M24.4,72.7h-0.4c-0.2,2.3-0.4,4.6-0.6,7h0.5c0.2-1.9,0.4-3.8,0.5-5.6V72.7"/>
		<path class="st13" d="M14.1,72.7H13c-0.2,2.3-0.4,4.6-0.6,7h1.1C13.8,77.3,13.9,75,14.1,72.7"/>
	</g>
</g>
<g>
	<defs>
		<path id="SVGID_5_" d="M24.4,69.2v4.9c0.1-1.7,0.2-3.3,0.3-4.9H24.4z"/>
	</defs>
	<clipPath id="SVGID_6_">
		<use xlink:href="#SVGID_5_"  style="overflow:visible;"/>
	</clipPath>
	<g class="st15">
		<path class="st13" d="M24.5,72.7L24.5,72.7l-0.1,1.4C24.4,73.6,24.4,73.2,24.5,72.7"/>
	</g>
</g>
<g>
	<defs>
		<path id="SVGID_7_" d="M3.1,25.1v44.2h21.3V34.7c-0.2-3.2-0.5-6.4-0.8-9.6L3.1,25.1z"/>
	</defs>
	<clipPath id="SVGID_8_">
		<use xlink:href="#SVGID_7_"  style="overflow:visible;"/>
	</clipPath>
	<g class="st16">
		<path class="st14" d="M13.9,58.7H3.1v7h10.4C13.7,63.3,13.8,60.9,13.9,58.7"/>
		<path class="st12" d="M24.4,58.7h-9.4c-0.1,2.2-0.2,4.6-0.3,7h9.7v-0.6L24.4,58.7"/>
		<path class="st13" d="M24.4,65.2v0.6l0,0V65.2"/>
		<path class="st13" d="M14.9,58.7h-1.1c-0.1,2.2-0.2,4.6-0.3,7h1.1C14.7,63.3,14.9,60.9,14.9,58.7"/>
		<path class="st14" d="M13.5,30.7H3.1v7H14C13.8,35,13.7,32.7,13.5,30.7"/>
		<path class="st12" d="M23.5,30.7h-8.9c0.2,2,0.3,4.4,0.4,7h9C23.9,35.4,23.7,33,23.5,30.7"/>
		<path class="st13" d="M24.1,30.7h-0.5c0.2,2.4,0.3,4.7,0.5,7h0.3v-3C24.3,33.4,24.2,32.1,24.1,30.7"/>
		<path class="st13" d="M14.6,30.7h-1.1c0.2,2,0.3,4.4,0.4,7H15C14.9,35.1,14.8,32.7,14.6,30.7"/>
		<path class="st14" d="M14.1,44.7h-11v7h11c0-1.8,0-3.5,0-5.1V44.7"/>
		<path class="st12" d="M24.4,44.7h-9.2v1.9c0,1.6,0,3.3,0,5.1h9.2L24.4,44.7"/>
		<path class="st13" d="M15.2,44.7h-1.1v1.9c0,1.6,0,3.3,0,5.1h1c0-1.8,0-3.5,0-5.1V44.7"/>
	</g>
</g>
<g>
	<defs>
		<path id="SVGID_9_" d="M24.4,69.2h0.4c0.3-4.7,0.4-9.2,0.4-13.6v-1.3c0-6.7-0.3-13.1-0.8-19.7L24.4,69.2z"/>
	</defs>
	<clipPath id="SVGID_10_">
		<use xlink:href="#SVGID_9_"  style="overflow:visible;"/>
	</clipPath>
	<g class="st17">
		<path class="st13" d="M25.1,58.7h-0.3v7h0.1C25,63.3,25.1,61,25.1,58.7"/>
		<path class="st13" d="M24.9,44.7L24.9,44.7l-0.1,7h0.3C25.1,49.4,25,47,24.9,44.7"/>
		<path class="st12" d="M24.5,58.7h-0.2v6.4C24.5,63,24.5,60.8,24.5,58.7"/>
		<path class="st13" d="M24.8,58.7h-0.3c0,2.1-0.1,4.3-0.2,6.4v0.6h0.5V58.7"/>
		<path class="st13" d="M24.4,34.7v3h0.2C24.5,36.7,24.4,35.7,24.4,34.7"/>
		<path class="st12" d="M24.4,44.7L24.4,44.7v7h0.2C24.6,49.4,24.5,47,24.4,44.7"/>
		<path class="st13" d="M24.8,44.7h-0.5c0.1,2.3,0.2,4.7,0.2,7h0.3L24.8,44.7"/>
	</g>
</g>
<g>
	<defs>
		<polygon id="SVGID_11_" points="137.6,310.6 156,310.7 156,279 138.2,278.9 		"/>
	</defs>
	<clipPath id="SVGID_12_">
		<use xlink:href="#SVGID_11_"  style="overflow:visible;"/>
	</clipPath>
	<g class="st18">
		<polygon class="st14" points="156,282.9 138.8,282.9 138.7,289.9 156,289.9 		"/>
		<polygon class="st13" points="138.8,282.9 138.1,282.9 138,289.9 138.7,289.9 		"/>
		<polygon class="st14" points="156,296.9 138.6,296.9 138.4,303.9 156,303.9 		"/>
		<polygon class="st13" points="138.6,296.9 137.9,296.9 137.7,303.9 138.4,303.9 		"/>
	</g>
</g>
<g>
	<defs>
		<path id="SVGID_13_" d="M156,310.7l49.4,0.5v10.1l15.6-0.1l0.3-10.2c0,0,61.5,2.6,61.5,0.3s-0.3-31.2-0.3-31.2L155.9,279
			L156,310.7z"/>
	</defs>
	<clipPath id="SVGID_14_">
		<use xlink:href="#SVGID_13_"  style="overflow:visible;"/>
	</clipPath>
	<g class="st19">
		<path class="st14" d="M245.5,311.9c7.9,0.2,16.3,0.4,23.2,0.4c4.4,0,8.1-0.1,10.7-0.3L245.5,311.9 M220.6,310.9H206v7h14.3
			L220.6,310.9"/>
		<path class="st13" d="M206,310.9h-37.3l36.6,0.4v6.6h0.7L206,310.9 M282.8,310.9h-62.2l-0.2,7h0.7l0.2-6.8c0,0,11.3,0.5,24.2,0.9
			l33.8,0.1c2.1-0.1,3.4-0.4,3.4-0.7L282.8,310.9"/>
		<polygon class="st14" points="281.7,282.9 156.4,282.9 156.4,289.9 156,289.9 281.8,289.9 		"/>
		<path class="st13" d="M282.4,282.9h-0.7l0.1,7h0.7C282.5,287.1,282.5,284.6,282.4,282.9"/>
		<polygon class="st14" points="281.9,296.9 156.4,296.9 156.4,303.9 156,303.9 281.9,303.9 		"/>
		<path class="st13" d="M282.6,296.9h-0.7l0.1,7h0.7C282.6,301.7,282.6,299.3,282.6,296.9"/>
		<rect x="156" y="282.9" class="st14" width="0.5" height="7"/>
		<rect x="156" y="296.9" class="st14" width="0.5" height="7"/>
	</g>
</g>
<g>
	<defs>
		<polygon id="SVGID_15_" points="262.1,209.3 262.1,212.5 162.8,212.6 162.8,238 282.3,239.1 281.8,213.2 273.3,213.5 273.7,209.3 
					"/>
	</defs>
	<clipPath id="SVGID_16_">
		<use xlink:href="#SVGID_15_"  style="overflow:visible;"/>
	</clipPath>
	<g class="st20">
		<polygon class="st14" points="282.1,226.8 163.5,226.8 163.5,233.8 282.2,233.8 		"/>
		<polygon class="st13" points="163.5,226.8 162.8,226.8 162.8,233.8 163.5,233.8 		"/>
		<polygon class="st14" points="273.3,212.8 262.5,212.8 262.5,213.5 163.5,213.3 163.5,219.8 281.9,219.8 281.8,214 273.6,213.8 
			273.6,213.5 273.3,213.5 		"/>
		<path class="st13" d="M281.8,213.2l-8.2,0.3v0.3l8.3,0.1L281.8,213.2z M262.5,212.8h-99.7v7h0.7v-6.5l99,0.2L262.5,212.8"/>
	</g>
</g>
<g>
	<defs>
		<polygon id="SVGID_17_" points="262.1,209.3 273.7,209.3 274.5,201.8 262,201.5 		"/>
	</defs>
	<clipPath id="SVGID_18_">
		<use xlink:href="#SVGID_17_"  style="overflow:visible;"/>
	</clipPath>
	<g class="st21">
		<polygon class="st14" points="262.7,202.2 262.6,205.8 273.7,205.8 273.8,202.5 		"/>
		<polygon class="st13" points="262,201.5 262,205.8 262.6,205.8 262.7,202.2 273.8,202.5 273.7,205.8 274.1,205.8 274.5,201.8 
			274.5,201.8 274.5,201.8 274.5,201.8 		"/>
	</g>
</g>
<g>
	<defs>
		<polygon id="SVGID_19_" points="136.7,158 136.9,178.5 156,178.7 156,157.9 		"/>
	</defs>
	<clipPath id="SVGID_20_">
		<use xlink:href="#SVGID_19_"  style="overflow:visible;"/>
	</clipPath>
	<g class="st22">
		<polygon class="st14" points="156,170.8 137.5,170.8 137.6,177.7 142.3,177.8 156,177.8 		"/>
		<polygon class="st13" points="137.5,170.8 136.8,170.8 136.9,177.8 142.3,177.8 137.6,177.7 		"/>
		<polygon class="st14" points="156,158.6 137.4,158.7 137.4,163.8 156,163.8 		"/>
		<polygon class="st13" points="156,157.9 136.7,158 136.7,163.8 137.4,163.8 137.4,158.7 156,158.6 		"/>
	</g>
</g>
<g>
	<defs>
		<polygon id="SVGID_21_" points="268,141.4 267.8,153.3 173.9,153.1 173.6,157.8 156,157.9 156,178.7 280.1,180 280.7,153.6 
			276.3,152.9 276.1,141.3 		"/>
	</defs>
	<clipPath id="SVGID_22_">
		<use xlink:href="#SVGID_21_"  style="overflow:visible;"/>
	</clipPath>
	<g class="st23">
		<path class="st14" d="M253.7,170.8h-97.3v7h97.1L253.7,170.8z M262.5,170.8h-7.4l-0.1,7h7.5L262.5,170.8 M279.6,170.8h-15.7v7
			h15.5L279.6,170.8"/>
		<polygon class="st13" points="255.1,170.8 253.7,170.8 253.5,177.8 254.9,177.8 		"/>
		<path class="st13" d="M263.9,170.8h-1.4v7h1.4V170.8z M280.3,170.8h-0.7l-0.2,7h0.7L280.3,170.8"/>
		<polygon class="st14" points="275.3,142.8 268.7,142.8 268.5,149.8 275.2,149.8 		"/>
		<path class="st13" d="M268.7,142.8H268l-0.1,7h0.6L268.7,142.8z M276.1,142.8h-0.8l-0.1,7h1L276.1,142.8"/>
		<path class="st14" d="M254,156.8h-79.2l0.1,1.7l-18.4,0.1v5.2h97.4L254,156.8z M262.5,156.8h-7.1l-0.1,7h7.3L262.5,156.8
			 M279.9,156.8h-16v7h15.9L279.9,156.8"/>
		<path class="st13" d="M174.7,156.8h-1l-0.1,1l-17.2,0.1v0.7l18.3-0.1V156.8z M255.4,156.8H254l-0.1,7h1.4L255.4,156.8"/>
		<path class="st13" d="M263.9,156.8h-1.4v7h1.4L263.9,156.8z M280.6,156.8h-0.7l-0.1,7h0.7L280.6,156.8"/>
		<rect x="156" y="170.8" class="st14" width="0.5" height="7"/>
		
			<rect x="156" y="158.6" transform="matrix(1 -6.632202e-03 6.632202e-03 1 -1.0657 1.0395)" class="st14" width="0.5" height="5.2"/>
		<polygon class="st13" points="156.4,157.9 156,157.9 156,158.6 156.4,158.6 		"/>
	</g>
</g>
<g>
	<defs>
		<polygon id="SVGID_23_" points="238.1,25.1 281.5,25.7 281.4,35.9 281.6,35.9 287.6,35.8 287.6,25.1 		"/>
	</defs>
	<clipPath id="SVGID_24_">
		<use xlink:href="#SVGID_23_"  style="overflow:visible;"/>
	</clipPath>
	<g class="st24">
		<polygon class="st14" points="287.6,30.7 282.2,30.7 282.1,35.9 287.6,35.8 		"/>
		<polygon class="st13" points="282.2,30.7 281.5,30.7 281.4,35.9 281.5,35.9 282.1,35.9 		"/>
	</g>
</g>
<g>
	<defs>
		<polygon id="SVGID_25_" points="287.6,25.1 287.6,35.8 290.1,35.8 290.1,25.1 		"/>
	</defs>
	<clipPath id="SVGID_26_">
		<use xlink:href="#SVGID_25_"  style="overflow:visible;"/>
	</clipPath>
	<g class="st25">
		<polygon class="st14" points="290.1,30.7 288,30.7 288,35.8 290.1,35.8 		"/>
		<rect x="287.6" y="30.7" class="st14" width="0.5" height="5.1"/>
	</g>
</g>
<g>
	<defs>
		<polygon id="SVGID_27_" points="55.3,65.6 55.3,65.7 90.4,65.7 89.9,40 55.7,39.1 		"/>
	</defs>
	<clipPath id="SVGID_28_">
		<use xlink:href="#SVGID_27_"  style="overflow:visible;"/>
	</clipPath>
	<g class="st26">
		<polygon class="st14" points="89.9,58.7 80,58.7 80,58.8 76.5,58.7 55.9,58.7 55.8,65.7 89.8,65.7 		"/>
		<polygon class="st13" points="55.8,58.7 55.4,58.7 55.3,65.6 55.3,65.7 55.8,65.7 		"/>
		<polygon class="st13" points="90.3,58.7 89.9,58.7 89.8,65.7 90.4,65.7 		"/>
		<polygon class="st13" points="80,58.7 76.5,58.7 80,58.8 		"/>
		<path class="st14" d="M78.4,45.5l-20,0.1l0.2,6.1h20L78.4,45.5z M56.9,44.7h-1.1v7h1.3L56.9,44.7 M89.9,44.7H79.7l0.1,7h10
			L89.9,44.7"/>
		<polygon class="st13" points="55.9,44.7 55.7,44.7 55.5,51.7 55.9,51.7 		"/>
		<polygon class="st13" points="90,44.7 90,44.7 89.9,51.7 90.1,51.7 		"/>
		<polygon class="st13" points="79.8,44.7 57.6,44.7 57.6,44.9 58.3,44.8 57.6,44.9 57.6,44.7 56.9,44.7 57.1,51.7 58.5,51.7 
			58.3,45.6 78.4,45.5 78.5,51.7 79.9,51.7 		"/>
	</g>
</g>
<rect x="113" y="69.5" class="st27" width="7.3" height="21.9"/>
<rect x="139.9" y="338.8" class="st27" width="7.3" height="21.9"/>
<rect x="139.9" y="314.7" class="st27" width="7.3" height="21.9"/>
<rect x="136.3" y="87.5" class="st27" width="20.6" height="7.8"/>
<rect x="163.3" y="87.5" class="st27" width="20.6" height="7.8"/>
<rect x="191.7" y="87.5" class="st27" width="20.6" height="7.8"/>
<rect x="218.3" y="87.5" class="st27" width="20.6" height="7.8"/>
<rect x="139.9" y="233" class="st27" width="7.3" height="21.9"/>
<rect x="139.9" y="199.4" class="st27" width="7.3" height="21.9"/>
<rect x="162.2" y="197.9" class="st27" width="20.6" height="7.8"/>
<rect x="197.8" y="197.9" class="st27" width="20.6" height="7.8"/>
<rect x="162.2" y="251" class="st27" width="20.6" height="7.8"/>
<rect x="197.8" y="251" class="st27" width="20.6" height="7.8"/>
<path class="st0" d="M164.1,39c-0.1,0.1-0.2,0.2-0.4,0.2h-3.3c0.9,1.1,2.3,1.9,3.8,2v0.1c-0.3,0.1-0.5,0.3-0.5,0.5
	c-1.5-0.3-2.8-1.3-3.5-2.6h-0.4c-0.5,1.1-1.6,2.1-4.1,2.6l-0.1-0.2c2-0.6,3-1.5,3.5-2.5h-3.4l-0.1-0.2h3.6c0.1-0.4,0.2-0.8,0.3-1.2
	h-2.6l-0.1-0.2h2.7c0-0.2,0-0.4,0-0.6v-0.5h-3l-0.1-0.2h3v-1.1l1,0.1c0,0.1-0.1,0.2-0.4,0.2v0.8h2l0.4-0.5l0.1,0.1
	c0.1-0.3,0.3-0.7,0.4-1h-6.1c0,0.8-0.5,1.2-1,1.2c-0.2,0-0.4-0.1-0.4-0.3c0-0.2,0.1-0.3,0.3-0.4c0.5-0.2,0.8-0.7,0.8-1.3h0.2
	c0,0.2,0.1,0.3,0.1,0.5h2.6v-1.4l1.1,0.1c0,0.1-0.1,0.2-0.4,0.3v1h2.9l0.4-0.4l0.7,0.7c-0.1,0.1-0.2,0.1-0.4,0.1
	c-0.3,0.4-0.6,0.7-0.9,1l0.5,0.3c-0.1,0.1-0.2,0.2-0.4,0.2h-2.7V37c0,0.2,0,0.4,0,0.6h1.7l0.4-0.5l0.8,0.5c-0.1,0.1-0.2,0.2-0.4,0.2
	h-2.5c0,0.4-0.1,0.8-0.3,1.2h3l0.4-0.5L164.1,39z"/>
<path class="st0" d="M164.7,38.5c1-1,1.8-2.1,2.5-3.3l0.9,0.5c0,0.1-0.1,0.1-0.2,0.1h-0.1c-0.3,0.4-0.6,0.8-0.9,1.1l0.3,0.1
	c-0.1,0.1-0.2,0.2-0.3,0.2v4.5c0,0-0.1,0.2-0.6,0.2v-4.4c-0.4,0.4-0.9,0.8-1.4,1.2L164.7,38.5z M164.7,35.6c0.8-0.7,1.6-1.5,2.2-2.4
	l0.8,0.5c0,0.1-0.1,0.1-0.2,0.1c-0.1,0-0.1,0-0.2,0c-0.8,0.8-1.6,1.5-2.6,2L164.7,35.6z M172.6,36l0.8,0.6c-0.1,0.1-0.2,0.2-0.4,0.2
	h-1.4v4.1c0,0.5-0.1,0.8-1,0.9c0-0.5-0.4-0.6-1.2-0.7V41h1.3c0.2,0,0.2,0,0.2-0.1v-4.1h-3l-0.1-0.2h4.3L172.6,36z M173,34
	c-0.1,0.1-0.2,0.2-0.4,0.2h-4.3l-0.1-0.2h3.6l0.4-0.5L173,34z"/>
<path class="st0" d="M178.6,37.5c-0.1,0.1-0.3,0.2-0.5,0.2H178l0,0c-0.1,0.1-0.2,0.1-0.3,0.1l-0.5,0.8h4.1l0.4-0.5l0.8,0.6
	c-0.1,0.1-0.2,0.2-0.4,0.2h-1.6c-0.2,0.6-0.6,1.2-1.1,1.6c2.1,0.4,2.6,1,2.6,1.3c0,0.1-0.1,0.2-0.3,0.2c-0.1,0-0.2,0-0.3-0.1
	c-0.8-0.4-1.7-0.8-2.6-1c-1.4,0.7-3,1.1-4.6,1.1v-0.2c1.4-0.1,2.8-0.5,4-1.1c-0.6-0.2-1.3-0.3-2.1-0.4l-0.3,0.4c0,0-0.1,0-0.1,0
	c-0.2,0-0.3-0.1-0.4-0.1c0.3-0.4,0.7-1,1.1-1.6h-2.3v-0.2h2.5c0.3-0.5,0.5-0.9,0.6-1.1l0.8,0.2v-1.9c-1.1,1.1-2.4,1.8-3.9,2.2
	l-0.1-0.2c1.3-0.5,2.4-1.3,3.3-2.2h-3.2l-0.1-0.2h3.9v-1.1c-1,0.1-2.1,0.1-3.1,0.2v-0.2c2-0.2,3.9-0.5,5.9-0.9l0.6,0.7
	c-0.1,0-0.1,0.1-0.2,0c-0.1,0-0.2,0-0.3-0.1c-0.6,0.1-1.4,0.2-2.3,0.3v1.2h2.7l0.4-0.5l0.8,0.6c-0.1,0.1-0.2,0.2-0.4,0.2H179
	c1.1,0.9,2.4,1.5,3.8,1.7v0.1c-0.3,0.1-0.5,0.3-0.5,0.5c-1.4-0.4-2.6-1.2-3.5-2.3l0,0L178.6,37.5z M177.1,38.7
	c-0.2,0.4-0.5,0.8-0.7,1.2c0.9,0.1,1.7,0.2,2.4,0.3c0.5-0.4,0.9-0.9,1.1-1.5L177.1,38.7z"/>
<path class="st0" d="M187,40.6c0,0.1-0.2,0.1-0.4,0.1c-1,0.6-2,1-3.2,1.1l-0.1-0.1c1-0.3,1.9-0.8,2.7-1.4L187,40.6z M185,40.1v0.2
	c0,0-0.1,0.2-0.6,0.2v-4.5l0.7,0.3h4.8l0.3-0.4l0.8,0.6c-0.1,0.1-0.3,0.2-0.4,0.2v3.4c0,0-0.2,0.2-0.6,0.2V40L185,40.1z M185.5,35.5
	v0.2c0,0-0.1,0.2-0.6,0.2v-2.3l0.6,0.3h3.9l0.3-0.4l0.8,0.6c-0.1,0.1-0.3,0.2-0.4,0.2v1.3c0,0-0.2,0.2-0.6,0.2v-0.3L185.5,35.5z
	 M190,36.6h-5v0.9h5V36.6z M190,38.6v-0.9h-5v0.9H190z M185,39.8h5v-1h-5V39.8z M189.5,34h-4v1.2h4V34z M188.3,40.3
	c2.4,0,3.2,0.8,3.2,1.2c0,0.1-0.1,0.2-0.3,0.2h-0.1c-0.8-0.6-1.8-1-2.8-1.3L188.3,40.3z"/>
<path class="st0" d="M200.9,35.5c-0.1,0.1-0.2,0.2-0.4,0.2h-3.3c0.9,1.7,2.2,3,3.9,3.8v0.1c-0.3,0-0.5,0.2-0.6,0.5
	c-1.6-1.1-2.8-2.6-3.5-4.4v3.9h0.9l0.4-0.6l0.8,0.6c-0.1,0.2-0.3,0.2-0.4,0.2H197v1.8c0,0-0.1,0.2-0.6,0.2v-2h-2l-0.1-0.2h2.1v-3.4
	c-0.9,1.7-2.2,3.1-3.9,4l-0.1-0.1c1.5-1.1,2.8-2.6,3.5-4.4h-3.3l-0.1-0.2h3.9v-2.2l1,0.1c0,0.1-0.1,0.2-0.4,0.2v1.9h2.6l0.5-0.6
	L200.9,35.5z"/>
<path class="st0" d="M205.6,37.1l0.4-0.5l0.8,0.6c-0.1,0.1-0.2,0.2-0.4,0.2h-4.6l-0.1-0.2h2.9c0.2-0.7,0.4-1.3,0.6-2l1,0.3
	c0,0.1-0.1,0.1-0.4,0.1c-0.3,0.5-0.6,1.1-1,1.6L205.6,37.1z M201.9,34.9l-0.1-0.2h1.9v-1.4l1,0.1c0,0.2-0.1,0.2-0.4,0.3v1h1l0.4-0.5
	l0.8,0.6c-0.1,0.1-0.2,0.2-0.4,0.2L201.9,34.9z M205.2,38.3l0.3-0.4l0.8,0.6c-0.1,0.1-0.3,0.2-0.4,0.2v2.5c0,0-0.2,0.2-0.6,0.2v-0.6
	h-2.4v0.7c0,0-0.1,0.2-0.6,0.2V38l0.6,0.3H205.2z M202.6,35.1c0.5,0.2,0.8,0.7,0.9,1.3c0,0.3-0.2,0.5-0.3,0.5
	c-0.1,0-0.2-0.1-0.3-0.1c0-0.5-0.2-1.1-0.4-1.6L202.6,35.1z M202.9,40.6h2.4v-2.1h-2.4V40.6z M209.6,33.6l0.7,0.7
	c-0.1,0.1-0.2,0.1-0.4,0.1c-0.3,0.6-1,1.7-1.4,2.3c1.6,1.1,1.7,1.9,1.7,2.4c0,0.9-0.4,1.4-1.4,1.4c0-0.4-0.1-0.5-0.7-0.5v-0.2h1
	c0.5,0,0.6-0.4,0.6-0.8c-0.1-0.9-0.5-1.7-1.2-2.2c0.2-0.6,0.7-1.8,0.9-2.6h-1.7v7.4c0,0.1-0.2,0.2-0.5,0.2H207v-8.1l0.7,0.3h1.5
	L209.6,33.6z"/>
<path class="st28" d="M75.1,138.2c2.5-1.1,4.2-3.3,4.6-6c0,0,0,0,0-0.1s0-0.1-0.1-0.1c-1.4,0.1-2.8,0.2-4.2,0.5
	c-0.1,0.1-0.2,0.1-0.4,0.1c-0.3,0-0.8-0.6-0.8-1c0-0.2,0.1-0.3,0.3-0.3l0,0c0.1,0.5,0.7,0.5,1,0.5c0.5,0,3.2-0.1,3.8-0.2
	c0.2,0,0.3-0.2,0.4-0.2c0.4,0.2,0.7,0.4,0.9,0.8c0,0.1-0.1,0.1-0.2,0.2s-0.1,0.1-0.1,0.2c-0.6,2.6-2.5,4.8-5.1,5.6L75.1,138.2z
	 M81.4,130c0.6,0,1,0.4,1,1s-0.4,1-1,1s-1-0.4-1-1S80.9,130,81.4,130z M82.1,131c0-0.4-0.2-0.8-0.6-0.8c-0.4,0-0.8,0.2-0.8,0.6
	c0,0.1,0,0.1,0,0.2c0,0.4,0.2,0.8,0.6,0.8c0.4,0,0.8-0.2,0.8-0.6C82.1,131.1,82.1,131,82.1,131z"/>
<path class="st28" d="M88.9,134.2c0.6,0,1-0.1,1.1-0.1c0.4,0,1,0.2,1,0.4s-0.2,0.2-0.5,0.2h-0.6c-0.4,0-1.1,0-1.7,0
	c-1.3,0-2.7,0-4,0.2c-0.1,0.1-0.3,0.1-0.4,0.1c-0.5-0.1-0.9-0.5-1-0.9c0-0.2,0.1-0.3,0.2-0.5h0.1c0.1,0.5,0.5,0.6,1.4,0.6
	L88.9,134.2z"/>
<path class="st28" d="M93.5,132.5c0.1-0.2,0.3-0.3,0.5-0.3c0.4,0,1,0.3,1,0.6c0,0.1-0.1,0.1-0.1,0.2c0,0.1-0.1,0.2-0.1,0.3
	c-0.1,1.9-1,3.7-2.5,5l-0.2-0.2c1.2-1.4,1.9-3.2,2-5.1C94.1,132.6,93.8,132.5,93.5,132.5L93.5,132.5z M100.5,133.5
	c-0.5,1.7-1.6,3.1-3.2,3.9c-0.1,0.1-0.3,0.2-0.4,0.3c-0.1,0.1-0.2,0.3-0.3,0.3c-0.3-0.1-0.5-0.4-0.6-0.7c0-0.1,0.1-0.2,0.1-0.3
	c0-0.2,0.1-0.3,0.1-0.5c0-0.5,0-1.5,0-2.5s0-1.6,0-2s0-0.7-0.2-0.8c-0.1-0.1-0.3-0.1-0.5-0.1l0,0c0.1-0.2,0.3-0.4,0.5-0.3
	c0.4,0,1,0.3,1,0.6c0,0.1-0.1,0.2-0.1,0.3c-0.1,0.1-0.1,0.3-0.1,0.4c-0.1,0.9-0.1,2.4-0.1,3.8v1c0,0.1,0,0.1,0.1,0.1
	c1.5-0.7,2.8-1.9,3.4-3.4L100.5,133.5z"/>
<path class="st0" d="M158.3,75.3c0.8-0.8,1.4-1.7,1.7-2.7l0.9,0.4c0,0.1-0.1,0.1-0.4,0.1c-0.5,1-1.2,1.8-2.1,2.3L158.3,75.3z
	 M166,71l0.9,0.6c-0.1,0.1-0.3,0.2-0.4,0.2H164v4c0,0.5-0.1,0.8-1,0.9c0-0.5-0.3-0.6-1.1-0.6V76h1.2c0.2,0,0.2,0,0.2-0.2v-4h-1.5
	c-0.1,2.1-0.3,3.8-2.8,4.9l-0.1-0.2c2.2-1.2,2.3-2.8,2.3-4.8h-2.9l-0.1-0.2h4v-1.7h-3l-0.1-0.2h3.1v-1.5l1,0.1
	c0,0.1-0.1,0.2-0.4,0.3v1.1h1.9l0.4-0.6l0.8,0.6c-0.1,0.1-0.2,0.2-0.4,0.2H163v1.7h2.7L166,71z M164.6,72.7c1.6,0.8,2.1,1.7,2.1,2.2
	c0,0.3-0.1,0.4-0.3,0.4c-0.1,0-0.2,0-0.3-0.1C165.8,74.2,165.2,73.4,164.6,72.7L164.6,72.7z"/>
<path class="st0" d="M171.5,75.8c2.6-0.3,3.5-1.7,3.5-3.2c0-1.7-0.8-3.1-2.9-3.1c-0.3,0-0.5,0-0.8,0.1c0.2,0.2,0.4,0.6,0.4,0.9
	c0,1.7-1.2,4.5-2.6,4.5c-0.7,0-1.1-0.8-1.1-1.9c0.1-2.2,1.9-4,4.1-3.9c0,0,0.1,0,0.1,0c1.8-0.2,3.3,1.1,3.5,2.9c0,0.2,0,0.3,0,0.5
	c0,1.7-1.1,3.1-4.1,3.4L171.5,75.8z M171.1,69.7c-1.5,0.4-2.6,1.9-2.6,3.5c0,0.7,0.2,1.3,0.6,1.3c1.1,0,2.1-2.6,2.1-4.2
	C171.3,70.1,171.2,69.8,171.1,69.7z"/>
<path class="st0" d="M184.5,69.1l0.8,0.6c-0.1,0.1-0.2,0.2-0.4,0.2h-6.6v1.9c0,1.5-0.1,3.5-1.4,4.9l-0.1-0.1c0.8-1.5,1.1-3.2,1-4.8
	v-2.4l0.7,0.3h2.5v-1.5l1,0.1c0,0.1-0.1,0.2-0.4,0.3v1.2h2.5L184.5,69.1z M182.1,70.9c0,0.1-0.1,0.2-0.4,0.2c-0.5,1.5-1.1,3-1.9,4.5
	c1.1-0.1,2.6-0.2,4.1-0.3c-0.4-0.7-0.9-1.3-1.4-1.8l0.1-0.1c1.8,1.1,2.4,2.2,2.4,2.8c0,0.3-0.1,0.5-0.3,0.5c-0.1,0-0.2,0-0.3-0.1
	c-0.1-0.4-0.2-0.7-0.4-1.1c-1.2,0.2-2.8,0.5-5,0.8c0,0.1-0.1,0.2-0.2,0.2l-0.4-0.8h1.1c0.6-1.6,1.1-3.2,1.4-4.9L182.1,70.9z"/>
<path class="st0" d="M187.7,73.7c0.4-0.1,0.9-0.3,1.4-0.4v0.1c-0.6,0.3-1.4,0.7-2.6,1.3c0,0.1-0.1,0.2-0.2,0.2l-0.4-0.8
	c0.3,0,0.6-0.1,1.1-0.3v-3h-1l-0.1-0.2h1.1v-2.3l1,0.1c0,0.2-0.1,0.2-0.4,0.2v2h0.3l0.4-0.6l0.7,0.6c-0.1,0.1-0.2,0.2-0.4,0.2h-0.9
	L187.7,73.7z M194.6,72.3c-0.1,0.1-0.2,0.2-0.4,0.2h-3.5c-0.1,0.4-0.3,0.7-0.5,1h3.1l0.3-0.4l0.7,0.6c-0.1,0.1-0.2,0.1-0.4,0.1
	c-0.1,1.6-0.3,2.5-0.7,2.8c-0.3,0.2-0.5,0.2-0.9,0.2c0-0.3,0-0.5-0.8-0.5v-0.2h0.9c0.2,0,0.2,0,0.3-0.1s0.4-1,0.5-2.4h-0.6
	c-0.4,1.3-1.2,2.4-2.4,3.1l-0.1-0.2c0.9-0.8,1.5-1.8,1.8-3h-0.8c-0.5,1.2-1.4,2.1-2.5,2.8l-0.1-0.2c0.9-0.7,1.6-1.6,2-2.6h-0.7
	c-0.5,0.7-1.1,1.2-1.8,1.7l-0.1-0.2c0.9-0.7,1.5-1.6,1.9-2.7h-1.3l-0.1-0.2h4.8l0.4-0.5L194.6,72.3z M190.1,71.3v0.3
	c0,0-0.1,0.2-0.6,0.2v-3.4l0.6,0.3h2.6l0.3-0.4l0.8,0.6c-0.1,0.1-0.2,0.2-0.4,0.2v2.5c0,0-0.2,0.2-0.6,0.2v-0.4L190.1,71.3z
	 M192.9,68.8h-2.8v1h2.8V68.8z M190.1,71h2.8v-1h-2.8V71z"/>
<path class="st28" d="M119,80.9h-2.4l-0.3,1.2c-0.1,0.1-0.1,0.3-0.1,0.4c0,0.2,0.1,0.3,0.5,0.3v0.3h-1.5v-0.3c0.3,0,0.4-0.1,0.6-0.5
	l1.9-6.2h0.4l2.1,6c0.2,0.6,0.3,0.6,0.6,0.6V83H119v-0.3c0.4,0,0.5-0.1,0.5-0.3c0-0.1,0-0.2-0.1-0.4L119,80.9z M118.8,80.5l-1.1-3.3
	l0,0l-1,3.3L118.8,80.5z"/>
<path class="st28" d="M142.6,90.4c0-0.7,0-0.7-0.7-0.7v-0.3h2.2c0.6-0.1,1.2,0.1,1.7,0.4c0.4,0.3,0.6,0.7,0.6,1.1
	c0,0.4-0.1,1.4-1.6,1.7l0,0c1.1,0,2,0.6,2,1.7c0,0.5-0.2,1-0.5,1.4c-0.5,0.4-1.1,0.6-1.7,0.6h-2.6v-0.3c0.7,0,0.7-0.1,0.7-0.7
	L142.6,90.4z M143.6,89.8c-0.2,0-0.3,0.1-0.3,0.3v2.4h0.6c1,0,1.6-0.5,1.6-1.4c0-0.7-0.4-1.3-1.4-1.3L143.6,89.8z M143.4,92.9v2.5
	c0,0.4,0.1,0.5,0.4,0.5h0.8c1,0,1.4-0.6,1.4-1.6c0-0.4-0.2-0.8-0.4-1.1c-0.4-0.3-0.8-0.4-1.3-0.4H143.4z"/>
<path class="st28" d="M172.1,91.2c-0.2-1.1-0.3-1.6-1.4-1.6c-1.4,0-2.1,1.2-2.1,3.1c0,2.9,1.5,3.2,2,3.2c0.9-0.1,1.6-0.7,1.7-1.5
	l0.4,0.1c-0.2,1-1.1,1.8-2.2,1.8c-0.7,0-1.4-0.3-1.9-0.8c-0.6-0.8-0.9-1.8-0.8-2.8c0-2.3,1.1-3.5,2.9-3.5c0.5,0,1.1,0.1,1.5,0.3
	c0.1,0.5,0.1,1.1,0.2,1.5L172.1,91.2z"/>
<path class="st28" d="M196.9,96.2v-0.3c0.7,0,0.7-0.1,0.7-0.7v-4.8c0-0.7-0.1-0.7-0.7-0.7v-0.3h2.5c0.8-0.1,1.6,0.2,2.2,0.8
	c0.6,0.7,0.9,1.6,0.8,2.6c0,2.7-1.4,3.5-3.2,3.5L196.9,96.2z M198.7,89.8c-0.2,0-0.3,0.1-0.3,0.4v5.2c0,0.4,0.1,0.5,0.3,0.5h0.4
	c1.5,0,2.5-0.8,2.5-3c0.1-0.8-0.1-1.7-0.6-2.4c-0.4-0.5-1-0.8-1.7-0.7H198.7z"/>
<path class="st28" d="M228.5,95.5h-4.3v-0.3c0.7,0,0.7-0.1,0.7-0.7v-4.8c0-0.7-0.1-0.7-0.7-0.7v-0.3h4.1l0.3,1.4h-0.4
	c-0.3-1-0.3-1.1-0.9-1.1H226c-0.3,0-0.3,0.1-0.3,0.4v2.3h1.3c0.4,0,0.5-0.1,0.5-0.9h0.3v2.3h-0.4c0-0.9-0.1-1-0.5-1h-1.3v2.6
	c0,0.4,0.1,0.4,0.3,0.4h1.6c0.5,0,0.6-0.1,0.9-1.1h0.4L228.5,95.5z"/>
<rect x="150.6" y="55.8" class="st29" width="19.8" height="8.9"/>
<rect x="218.1" y="47.6" class="st29" width="19.8" height="8.9"/>
<path class="st28" d="M158.3,63.6c0.7,0,0.7-0.1,0.7-0.7v-4.8c0-0.7-0.1-0.7-0.7-0.7v-0.3h2.3c0.7-0.1,1.4,0.1,1.9,0.5
	c0.4,0.3,0.6,0.9,0.6,1.4c0,1.8-1.7,1.9-2.6,1.9h-0.8v2.1c0,0.7,0,0.7,0.9,0.7v0.3h-2.4V63.6z M160.6,60.5c0.9,0,1.8-0.2,1.8-1.6
	c0-0.4-0.1-0.8-0.4-1.1c-0.4-0.3-0.9-0.4-1.4-0.4h-0.5c-0.2,0-0.2,0.1-0.2,0.6v2.5H160.6z"/>
<path class="st28" d="M230,56.9c-0.3,0.1-0.7,0.2-1,0.2c-1,0-1.9-0.7-2.3-1.6c-1.8-0.2-2.5-1.6-2.5-3.5c0-2.5,1.2-3.6,2.9-3.6
	s2.9,1.2,2.9,3.6c0,2.8-1.4,3.4-2.5,3.5c0.6,1,1.1,1.3,1.7,1.3c0.3,0,0.5,0,0.8-0.1L230,56.9z M225.7,49.4c-0.5,0.8-0.7,1.6-0.6,2.5
	c-0.1,0.9,0.2,1.8,0.6,2.5c0.7,0.8,1.9,0.9,2.7,0.2c0.1-0.1,0.2-0.2,0.2-0.2c0.4-0.8,0.7-1.6,0.6-2.5c0.1-0.9-0.1-1.8-0.6-2.5
	c-0.4-0.4-0.9-0.7-1.4-0.7C226.6,48.8,226.1,49,225.7,49.4z"/>
<path class="st28" d="M173.3,199.4c-0.2-1-0.3-1.5-1.4-1.5s-2.1,1.2-2.1,3.1c0,2.2,0.9,3.2,2,3.2c0.4,0,0.9-0.2,1.2-0.4v-1.1
	c0-0.5-0.1-0.5-0.8-0.5v-0.3h2v0.3c-0.5,0-0.6,0-0.6,0.5v1.2c-0.5,0.5-1.3,0.8-2,0.8c-1.6,0-2.7-1.2-2.7-3.6c0-2.1,1-3.5,2.9-3.5
	c0.5,0,1,0.1,1.5,0.3c0.1,0.5,0.1,1,0.2,1.5L173.3,199.4z"/>
<path class="st28" d="M207.5,200.6v2.3h-0.4c0-0.9-0.1-1-0.5-1h-1.2v2.3c0,0.7,0.1,0.7,0.9,0.7v0.3H204v-0.3c0.7,0,0.7-0.1,0.7-0.7
	v-4.8c0-0.7-0.1-0.7-0.7-0.7v-0.3h4.1l0.3,1.5H208c-0.2-1-0.3-1.1-0.9-1.1h-1.4c-0.3,0-0.3,0.1-0.3,0.5v2.4h1.2
	c0.4,0,0.5-0.1,0.5-0.9L207.5,200.6z"/>
<path class="st28" d="M146.2,206.4c-0.7,0-0.7,0-0.7,0.7v4.8c0,0.7,0.1,0.7,0.7,0.7v0.3H144v-0.3c0.6,0,0.6-0.1,0.6-0.7v-2.3h-3.2
	v2.4c0,0.6,0,0.7,0.6,0.7v0.3H140v-0.4c0.7,0,0.7-0.1,0.7-0.7v-4.8c0-0.7,0-0.7-0.7-0.7v-0.3h2.1v0.3c-0.6,0-0.6,0-0.6,0.7v2.1h3.2
	v-2.1c0-0.7,0-0.7-0.6-0.7v-0.3h2.1V206.4z"/>
<path class="st28" d="M141.1,245.8c0.8,0,0.8,0,0.8-0.7v-4.8c0-0.7,0-0.7-0.8-0.7v-0.3h2.4v0.3c-0.8,0-0.8,0.1-0.8,0.7v4.8
	c0,0.7,0,0.7,0.8,0.7v0.3h-2.4L141.1,245.8z"/>
<path class="st28" d="M171.5,257.4c0,0.6,0,2.4-1.7,2.4c-0.8,0-1.3-0.4-1.3-0.7c0-0.2,0.1-0.3,0.3-0.3c0,0,0,0,0,0
	c0.2,0,0.3,0.1,0.5,0.3c0.1,0.2,0.3,0.3,0.6,0.3c0.8,0,0.9-0.8,0.9-1.8v-4.6c0-0.7-0.1-0.7-0.8-0.7v-0.3h2.3v0.3
	c-0.7,0-0.7,0.1-0.7,0.7V257.4z"/>
<path class="st28" d="M207.2,254.5l1.8,3.2c0.4,0.6,0.5,0.7,0.9,0.7v0.3h-1.2l-2-3.6l-0.7,0.9v1.7c0,0.7,0,0.7,0.7,0.7v0.3h-2.2
	v-0.3c0.7,0,0.7-0.1,0.7-0.7v-4.8c0-0.7-0.1-0.7-0.7-0.7v-0.3h2.2v0.3c-0.6,0-0.6,0.1-0.6,0.7v2.4l0,0l1.8-2.4
	c0.2-0.3,0.4-0.5,0.4-0.6s-0.1-0.1-0.4-0.1v-0.3h1.7v0.3c-0.4,0-0.5,0-0.8,0.5L207.2,254.5z"/>
<path class="st28" d="M145.3,323.9l-0.3,1.5h-4.3v-0.3c0.7,0,0.7,0,0.7-0.7v-4.8c0-0.7-0.1-0.7-0.7-0.7v-0.3h2.2v0.3
	c-0.7,0-0.7,0-0.7,0.7v5c0,0.4,0.1,0.4,0.3,0.4h1.6c0.5,0,0.6-0.1,0.9-1.1L145.3,323.9z"/>
<path class="st28" d="M145.5,344.2h1.5v0.3c-0.7,0-0.7,0.1-0.7,0.7v4.8c0,0.7,0.1,0.7,0.7,0.7v0.3h-2.2v-0.3c0.7,0,0.7,0,0.7-0.7
	v-4.8l0,0l-2.3,5.9h-0.3l-2.4-5.9l0,0v4.8c0,0.7,0,0.7,0.7,0.7v0.3h-1.8v-0.3c0.7,0,0.7,0,0.7-0.7v-4.8c0-0.6,0-0.7-0.7-0.7v-0.3
	h1.5l2.4,5.7l0,0L145.5,344.2z"/>
<path class="st0" d="M173.2,362.5l0.8,0.6c-0.1,0.1-0.2,0.2-0.4,0.2h-1.6v2.1c0,0.1-0.2,0.2-0.5,0.2h-0.1v-2.3h-1.8l-0.1-0.2h1.8
	v-1.8h-1.5l-0.1-0.2h1.6v-1.7h-1.2c0,0.1-0.1,0.1-0.2,0.1h-0.8v1.8c-0.2,0.1-0.4,0.2-0.6,0.2v-0.5h-1.4c-0.1,0.4-0.2,0.8-0.4,1.2
	l0.3,0.1h1.5l0.3-0.4l0.8,0.6c-0.1,0.1-0.2,0.2-0.4,0.2v2.6c0,0-0.2,0.2-0.6,0.2v-0.6H167v0.6c0,0-0.2,0.2-0.5,0.2h-0.1v-2.8
	c-0.3,0.4-0.6,0.8-1,1.2l-0.1-0.1c0.7-0.9,1.2-1.9,1.4-3h-1l-0.1-0.2h1.2c0.1-0.4,0.1-0.8,0.1-1.2h-1.4l-0.1-0.2h1.5
	c0-0.4,0-0.9,0-1.3h-1.2l-0.1-0.2h2.8l0.3-0.4l0.8,0.6c-0.1,0.1-0.2,0.2-0.4,0.2v1.1l0.3-0.5l0.5,0.4h2c0.2-0.7,0.4-1.3,0.5-2
	l0.9,0.3c0,0.1-0.1,0.1-0.3,0.1c-0.3,0.6-0.6,1.1-0.9,1.6h0.6l0.4-0.5l0.8,0.6c-0.1,0.1-0.2,0.2-0.4,0.2h-1.6v1.7h0.6l0.4-0.5
	l0.8,0.5c-0.1,0.1-0.2,0.2-0.4,0.2h-1.4v1.8h0.9L173.2,362.5z M168.7,362.4H167v2.2h1.8L168.7,362.4z M168.6,360.6v-1.2h-1.1
	c0,0.4-0.1,0.8-0.2,1.2H168.6z M168.6,357.9h-1c0,0.4,0,0.8-0.1,1.3h1.1L168.6,357.9z M170.1,357.1c0.7,0.4,1,0.9,1,1.2
	s-0.2,0.5-0.4,0.5c-0.1,0-0.2-0.1-0.3-0.1C170.4,358.1,170.3,357.6,170.1,357.1L170.1,357.1z"/>
<path class="st0" d="M178.1,361.5c0.8-0.7,1.5-1.6,1.9-2.6l1,0.2c0,0.1-0.1,0.1-0.4,0.2c1.3,0.4,1.7,1,1.7,1.3
	c0,0.2-0.1,0.3-0.3,0.3c0,0,0,0,0,0c-0.1,0-0.1,0-0.2-0.1c-0.3-0.6-0.7-1.2-1.3-1.5c-0.6,0.9-1.4,1.7-2.4,2.3L178.1,361.5z
	 M182.2,362.3c-0.1,0.1-0.2,0.2-0.4,0.2v1.4c0,0.5-0.1,0.8-0.7,0.8c0-0.5-0.2-0.5-0.6-0.6V364h0.7c0.1,0,0.1,0,0.1-0.1v-1.6h-1.1
	v3.1c0,0-0.2,0.2-0.5,0.2h-0.1v-3.3h-1.2l-0.1-0.2h2.8l0.3-0.3L182.2,362.3z M179.6,358.7v0.3c0,0-0.1,0.2-0.6,0.2v-1.8l1,0.1
	c0,0.1-0.1,0.2-0.4,0.2v0.8h2.6V357l1,0.1c0,0.1-0.1,0.2-0.4,0.2v1.1h2.6v-1.1l1,0.1c0,0.1-0.1,0.2-0.4,0.2v1.2c0,0-0.1,0.2-0.6,0.2
	v-0.4H179.6z M180.6,361.1l0.3-0.4l0.6,0.5c-0.1,0.1-0.2,0.2-0.4,0.2h-2l-0.1-0.2H180.6z M184.4,364.7c-0.1,0.1-0.1,0.1-0.2,0.1H184
	c-0.7,0.4-1.5,0.7-2.3,0.8l-0.1-0.1c0.8-0.2,1.5-0.7,2.1-1.2L184.4,364.7z M186.8,359.6c-0.1,0.1-0.2,0.2-0.4,0.2h-1.6
	c-0.2,0.3-0.3,0.6-0.5,0.9h1.3l0.3-0.3l0.8,0.5c-0.1,0.1-0.2,0.1-0.3,0.2v3c0,0-0.2,0.2-0.6,0.2V364h-2.4v0.2c0,0-0.1,0.2-0.6,0.2
	v-3.9l0.6,0.3h0.6c0.1-0.3,0.1-0.6,0.2-0.9h-1.8v-0.2h3.4l0.4-0.5L186.8,359.6z M185.6,361h-2.4v0.8h2.4V361z M183.3,362v0.8h2.4
	V362H183.3z M183.3,363.8h2.4V363h-2.4V363.8z M184.9,364.4c1.4,0.2,1.8,0.6,1.8,0.9c0,0.2-0.1,0.3-0.3,0.3l0,0
	c-0.1,0-0.2,0-0.3-0.1c-0.3-0.5-0.8-0.8-1.3-1L184.9,364.4z"/>
<path class="st0" d="M191,360.8c1.6-0.9,2.9-2.2,3.9-3.8l1,0.3c0,0.1-0.1,0.1-0.4,0.2c1.1,1.2,2.5,2.1,4,2.6v0.1
	c-0.3,0.1-0.5,0.3-0.5,0.5c-1.5-0.7-2.7-1.8-3.6-3.2c-1.1,1.5-2.6,2.6-4.3,3.4V360.8z M198,362l0.5-0.6l0.9,0.6
	c-0.1,0.1-0.2,0.2-0.4,0.2h-4.4l0.4,0.1c0,0.1-0.1,0.1-0.4,0.1c-0.4,0.8-0.9,1.5-1.5,2.2c1.2,0,2.7-0.1,4.4-0.2
	c-0.4-0.5-0.9-0.9-1.4-1.2l0.1-0.1c2,0.6,2.6,1.6,2.6,2.1c0,0.2-0.1,0.4-0.3,0.4c-0.1,0-0.2,0-0.3-0.1c-0.1-0.3-0.3-0.6-0.5-0.8
	c-1.2,0.2-2.9,0.4-5.3,0.6c0,0.1-0.1,0.2-0.2,0.2l-0.5-0.8h1.2c0.4-0.8,0.7-1.6,1-2.5h-2.5l-0.1-0.2L198,362z M196.7,359.7l0.9,0.6
	c-0.1,0.1-0.2,0.2-0.4,0.2h-4.3l-0.1-0.2h3.5L196.7,359.7z"/>
<g>
	<defs>
		<path id="SVGID_29_" d="M173.3,127.1h3.4v-0.5h-3.4L173.3,127.1z M173.3,125.1h3.4v-0.8h-3.4L173.3,125.1z M173.3,123h3.4v-0.8
			h-3.5L173.3,123z M173.3,120.8h3.5V120h-3.5V120.8z M173.3,118.7h3.5v-0.8h-3.5V118.7z M173.3,116.5h3.5v-0.8h-3.5L173.3,116.5z
			 M173.3,114.4h3.5v-0.8h-3.5V114.4z M173.3,112.2h3.5v-0.8h-3.5L173.3,112.2z M183.2,114l0.1,14.2h17.1v-18.7l-17.1-0.1L183.2,114
			z M173.3,109.2v0.9h3.5v-0.9L173.3,109.2z M127.4,108.2v20h3.9c0-7.3,0.1-14.1,0.1-19.1c0-0.3,0-0.6,0-0.9L127.4,108.2z
			 M133.8,108.2l-0.1,20H172l-0.1-20H133.8z M178.3,108.2v20h3.5V114v-5.8L178.3,108.2z"/>
	</defs>
	<clipPath id="SVGID_30_">
		<use xlink:href="#SVGID_29_"  style="overflow:visible;"/>
	</clipPath>
	<g class="st30">
		<g>
			<defs>
				<rect id="SVGID_31_" x="127.2" y="108" width="73.3" height="20.3"/>
			</defs>
			<clipPath id="SVGID_32_">
				<use xlink:href="#SVGID_31_"  style="overflow:visible;"/>
			</clipPath>
			<g class="st31">
				
					<image style="overflow:visible;enable-background:new    ;" width="408" height="114" xlink:href="A97FAEF5.png"  transform="matrix(0.1784 0 0 0.1784 127.4373 108.0157)">
				</image>
			</g>
		</g>
	</g>
</g>
<g>
	<defs>
		<path id="SVGID_33_" d="M131.4,108.2c0,0.3,0,0.6,0,0.9c0,5-0.1,11.8-0.1,19.1h0.9l0.1-20L131.4,108.2z"/>
	</defs>
	<clipPath id="SVGID_34_">
		<use xlink:href="#SVGID_33_"  style="overflow:visible;"/>
	</clipPath>
	<g class="st32">
		<g>
			<defs>
				<rect id="SVGID_35_" x="131.2" y="108" width="1.3" height="20.3"/>
			</defs>
			<clipPath id="SVGID_36_">
				<use xlink:href="#SVGID_35_"  style="overflow:visible;"/>
			</clipPath>
			<g class="st33">
				
					<image style="overflow:visible;enable-background:new    ;" width="8" height="114" xlink:href="A97FAEF7.png"  transform="matrix(0.1575 0 0 0.1575 131.1652 109.2082)">
				</image>
			</g>
		</g>
	</g>
</g>
<g>
	<defs>
		<path id="SVGID_37_" d="M181.7,128.2h0.1l-0.1-14.2V128.2z M183.2,108.2v5.8v-4.6l17.1,0.1v-1.3L183.2,108.2z"/>
	</defs>
	<clipPath id="SVGID_38_">
		<use xlink:href="#SVGID_37_"  style="overflow:visible;"/>
	</clipPath>
	<g class="st34">
		<g>
			<defs>
				<rect id="SVGID_39_" x="181.6" y="108" width="18.9" height="20.3"/>
			</defs>
			<clipPath id="SVGID_40_">
				<use xlink:href="#SVGID_39_"  style="overflow:visible;"/>
			</clipPath>
			<g class="st35">
				
					<image style="overflow:visible;enable-background:new    ;" width="106" height="114" xlink:href="A97FAEF2.png"  transform="matrix(0.1783 0 0 0.1783 181.5652 108.0225)">
				</image>
			</g>
		</g>
	</g>
</g>
<g>
	<defs>
		<path id="SVGID_41_" d="M132.3,108.2l-0.1,20h1.4l0.1-20H132.3z M181.7,108.2v5.8l0.1,14.2h1.4l-0.1-14.2v-5.8H181.7z"/>
	</defs>
	<clipPath id="SVGID_42_">
		<use xlink:href="#SVGID_41_"  style="overflow:visible;"/>
	</clipPath>
	<g class="st36">
		<g>
			<defs>
				<rect id="SVGID_43_" x="132.1" y="108" width="51.3" height="20.3"/>
			</defs>
			<clipPath id="SVGID_44_">
				<use xlink:href="#SVGID_43_"  style="overflow:visible;"/>
			</clipPath>
			<g class="st37">
				
					<image style="overflow:visible;enable-background:new    ;" width="286" height="114" xlink:href="A97FAEF3.png"  transform="matrix(0.1784 0 0 0.1784 132.201 108.0157)">
				</image>
			</g>
		</g>
	</g>
</g>
<g>
	<defs>
		<polygon id="SVGID_45_" points="171.9,108.2 172,128.2 173.1,128.2 173.1,127.1 173.3,127.1 173.3,126.5 173.1,126.5 173.1,125.1 
			173.3,125.1 173.3,124.4 173,124.4 173,123 173.3,123 173.3,122.2 173,122.2 173,120.9 173.3,120.9 173.3,120.1 173,120.1 
			173,118.7 173.3,118.7 173.3,117.9 173,117.9 173.1,116.6 173.3,116.6 173.3,115.8 173.1,115.8 173.1,114.4 173.3,114.4 
			173.3,113.6 173.1,113.6 173.1,112.3 173.3,112.3 173.3,111.5 173.1,111.5 173.1,110.1 173.3,110.1 173.3,109.2 172.6,109.3 
			172.6,108.2 		"/>
	</defs>
	<clipPath id="SVGID_46_">
		<use xlink:href="#SVGID_45_"  style="overflow:visible;"/>
	</clipPath>
	<g class="st38">
		<g>
			<defs>
				<rect id="SVGID_47_" x="171.7" y="108" width="1.8" height="20.3"/>
			</defs>
			<clipPath id="SVGID_48_">
				<use xlink:href="#SVGID_47_"  style="overflow:visible;"/>
			</clipPath>
			<g class="st39">
				
					<image style="overflow:visible;enable-background:new    ;" width="11" height="114" xlink:href="A97FAEFD.png"  transform="matrix(0.1636 0 0 0.1636 171.6652 108.8584)">
				</image>
			</g>
		</g>
	</g>
</g>
<g>
	<defs>
		<polygon id="SVGID_49_" points="172.6,108.2 172.6,109.3 173.3,109.2 176.8,109.2 176.8,110.2 177.2,110.2 177.2,111.5 
			176.8,111.5 176.8,112.3 177.1,112.3 177.1,113.7 176.8,113.7 176.8,114.5 177.1,114.5 177.1,115.8 176.8,115.8 176.8,116.6 
			177.1,116.6 177.1,118 176.8,118 176.8,118.8 177.1,118.8 177.1,120.1 176.8,120.1 176.8,120.9 177.1,120.9 177,122.3 
			176.8,122.3 176.8,123.1 177,123.1 177,124.4 176.8,124.4 176.8,125.2 177.2,125.2 177.2,126.6 176.8,126.6 176.8,127.1 
			177.2,127.1 177.1,128.2 178.2,128.2 178.2,108.2 		"/>
	</defs>
	<clipPath id="SVGID_50_">
		<use xlink:href="#SVGID_49_"  style="overflow:visible;"/>
	</clipPath>
	<g class="st40">
		<g>
			<defs>
				<rect id="SVGID_51_" x="172.4" y="108" width="5.9" height="20.3"/>
			</defs>
			<clipPath id="SVGID_52_">
				<use xlink:href="#SVGID_51_"  style="overflow:visible;"/>
			</clipPath>
			<g class="st41">
				
					<image style="overflow:visible;enable-background:new    ;" width="34" height="114" xlink:href="A97FAEFF.png"  transform="matrix(0.1747 0 0 0.1747 172.3852 108.2274)">
				</image>
			</g>
		</g>
	</g>
</g>
<g>
	<defs>
		<polygon id="SVGID_53_" points="173.1,111.5 173.3,111.5 176.8,111.5 177.2,111.5 177.2,110.2 176.8,110.2 173.3,110.1 
			173.1,110.1 		"/>
	</defs>
	<clipPath id="SVGID_54_">
		<use xlink:href="#SVGID_53_"  style="overflow:visible;"/>
	</clipPath>
	<g class="st42">
		<g>
			<defs>
				<rect id="SVGID_55_" x="172.9" y="110" width="4.5" height="1.8"/>
			</defs>
			<clipPath id="SVGID_56_">
				<use xlink:href="#SVGID_55_"  style="overflow:visible;"/>
			</clipPath>
			<g class="st43">
				
					<image style="overflow:visible;enable-background:new    ;" width="26" height="11" xlink:href="A97FAEF0.png"  transform="matrix(0.1636 0 0 0.1636 173.0479 109.9957)">
				</image>
			</g>
		</g>
	</g>
</g>
<g>
	<defs>
		<polygon id="SVGID_57_" points="173.1,113.6 173.3,113.6 176.8,113.7 177.1,113.7 177.1,112.3 176.8,112.3 173.3,112.3 
			173.1,112.3 		"/>
	</defs>
	<clipPath id="SVGID_58_">
		<use xlink:href="#SVGID_57_"  style="overflow:visible;"/>
	</clipPath>
	<g class="st44">
		<g>
			<defs>
				<rect id="SVGID_59_" x="172.9" y="112.2" width="4.3" height="1.8"/>
			</defs>
			<clipPath id="SVGID_60_">
				<use xlink:href="#SVGID_59_"  style="overflow:visible;"/>
			</clipPath>
			<g class="st45">
				
					<image style="overflow:visible;enable-background:new    ;" width="25" height="11" xlink:href="A97FAEF1.png"  transform="matrix(0.1636 0 0 0.1636 173.0397 112.1557)">
				</image>
			</g>
		</g>
	</g>
</g>
<g>
	<defs>
		<polygon id="SVGID_61_" points="173.1,115.8 173.3,115.8 176.8,115.8 177.1,115.8 177.1,114.5 176.8,114.5 173.3,114.4 
			173.1,114.4 		"/>
	</defs>
	<clipPath id="SVGID_62_">
		<use xlink:href="#SVGID_61_"  style="overflow:visible;"/>
	</clipPath>
	<g class="st46">
		<g>
			<defs>
				<rect id="SVGID_63_" x="172.9" y="114.3" width="4.3" height="1.6"/>
			</defs>
			<clipPath id="SVGID_64_">
				<use xlink:href="#SVGID_63_"  style="overflow:visible;"/>
			</clipPath>
			<g class="st47">
				
					<image style="overflow:visible;enable-background:new    ;" width="25" height="10" xlink:href="A97FAEF6.png"  transform="matrix(0.162 0 0 0.162 173.0602 114.3157)">
				</image>
			</g>
		</g>
	</g>
</g>
<g>
	<defs>
		<polygon id="SVGID_65_" points="173,117.9 173.3,117.9 176.8,118 177.1,118 177.1,116.6 176.8,116.6 173.3,116.6 173.1,116.6 		
			"/>
	</defs>
	<clipPath id="SVGID_66_">
		<use xlink:href="#SVGID_65_"  style="overflow:visible;"/>
	</clipPath>
	<g class="st48">
		<g>
			<defs>
				<rect id="SVGID_67_" x="172.9" y="116.3" width="4.3" height="1.8"/>
			</defs>
			<clipPath id="SVGID_68_">
				<use xlink:href="#SVGID_67_"  style="overflow:visible;"/>
			</clipPath>
			<g class="st49">
				<g transform="translate(765.36 261.91) scale(0.18)">
					
						<image style="overflow:visible;enable-background:new    ;" width="25" height="11" id="image" xlink:href="7F74497E.png"  transform="matrix(0.1636 0 0 0.1636 173.0397 116.2957)">
					</image>
				</g>
			</g>
		</g>
	</g>
</g>
<g>
	<defs>
		<polygon id="SVGID_69_" points="173,120.1 173.3,120.1 176.8,120.1 177.1,120.1 177.1,118.8 176.8,118.8 173.3,118.7 173,118.7 		
			"/>
	</defs>
	<clipPath id="SVGID_70_">
		<use xlink:href="#SVGID_69_"  style="overflow:visible;"/>
	</clipPath>
	<g class="st50">
		<g>
			<defs>
				<rect id="SVGID_71_" x="172.9" y="118.5" width="4.3" height="1.8"/>
			</defs>
			<clipPath id="SVGID_72_">
				<use xlink:href="#SVGID_71_"  style="overflow:visible;"/>
			</clipPath>
			<g class="st51">
				<g transform="translate(204.19 137.85) scale(0.18)">
					
						<image style="overflow:visible;enable-background:new    ;" width="25" height="11" xlink:href="7F744979.png"  transform="matrix(0.1636 0 0 0.1636 -388.1302 -7.7643)">
					</image>
				</g>
			</g>
		</g>
	</g>
</g>
<g>
	<defs>
		<polygon id="SVGID_73_" points="173,122.2 173.3,122.2 176.8,122.3 177,122.3 177.1,120.9 176.8,120.9 173.3,120.9 173,120.9 		
			"/>
	</defs>
	<clipPath id="SVGID_74_">
		<use xlink:href="#SVGID_73_"  style="overflow:visible;"/>
	</clipPath>
	<g class="st52">
		<g>
			<defs>
				<rect id="SVGID_75_" x="172.8" y="120.6" width="4.5" height="1.8"/>
			</defs>
			<clipPath id="SVGID_76_">
				<use xlink:href="#SVGID_75_"  style="overflow:visible;"/>
			</clipPath>
			<g class="st53">
				
					<image style="overflow:visible;enable-background:new    ;" width="26" height="11" xlink:href="7F74497A.png"  transform="matrix(0.1636 0 0 0.1636 172.8679 120.6157)">
				</image>
			</g>
		</g>
	</g>
</g>
<g>
	<defs>
		<polygon id="SVGID_77_" points="173,124.4 173.3,124.4 176.8,124.4 177,124.4 177,123.1 176.8,123.1 173.3,123 173,123 		"/>
	</defs>
	<clipPath id="SVGID_78_">
		<use xlink:href="#SVGID_77_"  style="overflow:visible;"/>
	</clipPath>
	<g class="st54">
		<g>
			<defs>
				<rect id="SVGID_79_" x="172.8" y="122.8" width="4.5" height="1.8"/>
			</defs>
			<clipPath id="SVGID_80_">
				<use xlink:href="#SVGID_79_"  style="overflow:visible;"/>
			</clipPath>
			<g class="st55">
				
					<image style="overflow:visible;enable-background:new    ;" width="26" height="11" xlink:href="7F744978.png"  transform="matrix(0.1636 0 0 0.1636 172.8679 122.7757)">
				</image>
			</g>
		</g>
	</g>
</g>
<g>
	<defs>
		<polygon id="SVGID_81_" points="173.1,126.5 173.3,126.5 176.8,126.6 177.2,126.6 177.2,125.2 176.8,125.2 173.3,125.1 
			173.1,125.1 		"/>
	</defs>
	<clipPath id="SVGID_82_">
		<use xlink:href="#SVGID_81_"  style="overflow:visible;"/>
	</clipPath>
	<g class="st56">
		<g>
			<defs>
				<rect id="SVGID_83_" x="172.9" y="124.9" width="4.5" height="1.8"/>
			</defs>
			<clipPath id="SVGID_84_">
				<use xlink:href="#SVGID_83_"  style="overflow:visible;"/>
			</clipPath>
			<g class="st57">
				
					<image style="overflow:visible;enable-background:new    ;" width="26" height="11" xlink:href="7F744976.png"  transform="matrix(0.1636 0 0 0.1636 173.0479 124.9357)">
				</image>
			</g>
		</g>
	</g>
</g>
<g>
	<defs>
		<polygon id="SVGID_85_" points="173.1,128.2 177.1,128.2 177.2,127.1 176.8,127.1 173.3,127.1 173.1,127.1 		"/>
	</defs>
	<clipPath id="SVGID_86_">
		<use xlink:href="#SVGID_85_"  style="overflow:visible;"/>
	</clipPath>
	<g class="st58">
		<g>
			<defs>
				<rect id="SVGID_87_" x="172.9" y="126.9" width="4.3" height="1.4"/>
			</defs>
			<clipPath id="SVGID_88_">
				<use xlink:href="#SVGID_87_"  style="overflow:visible;"/>
			</clipPath>
			<g class="st59">
				
					<image style="overflow:visible;enable-background:new    ;" width="25" height="9" xlink:href="7F744969.png"  transform="matrix(0.16 0 0 0.16 173.0852 126.9157)">
				</image>
			</g>
		</g>
	</g>
</g>
<path class="st0" d="M140.4,119.5l0.3-0.3l0.7,0.6c-0.1,0.1-0.2,0.1-0.4,0.1c-0.1,1.1-0.3,1.8-0.6,2c-0.3,0.1-0.6,0.2-0.9,0.2
	c0-0.4-0.1-0.4-0.9-0.5v-0.1h1c0.2,0,0.2,0,0.3-0.1c0.3-0.5,0.4-1,0.4-1.6h-2.8v2.6c-0.1,0.1-0.3,0.2-0.5,0.2h-0.1V120
	c-1.1,1.1-2.5,1.9-3.9,2.3l-0.1-0.2c1.3-0.5,2.5-1.4,3.4-2.4h-2c-0.1,0.2-0.1,0.4-0.1,0.5c-0.1,0-0.2,0.1-0.3,0.1
	c-0.1,0-0.2,0-0.4-0.1c0.2-0.8,0.6-1.9,0.7-2.5l0.7,0.3h2v-1.3h-3.2l-0.1-0.2h6.2l0.3-0.3l0.8,0.5c-0.1,0.1-0.2,0.1-0.4,0.2v1.6
	c-0.2,0.1-0.4,0.2-0.6,0.2v-0.4h-2.4v1.3L140.4,119.5z M135.2,115.2c0.5,0.3,0.6,0.5,0.6,0.8c0,0.2-0.1,0.3-0.2,0.4
	c-0.1,0-0.2,0-0.3-0.1c-0.1-0.4-0.2-0.7-0.4-1h-0.5c-0.3,0.5-0.7,0.9-1.2,1.3l-0.1-0.1c0.5-0.7,1-1.5,1.2-2.4l0.9,0.3
	c0,0.1-0.1,0.1-0.3,0.1c-0.1,0.2-0.2,0.4-0.3,0.6h1.7l0.4-0.5l0.7,0.5c-0.1,0.1-0.2,0.2-0.4,0.2L135.2,115.2z M134.8,118.2l-0.3,1.3
	h2.5v-1.3H134.8z M140.8,114.4l0.8,0.6c-0.1,0.1-0.2,0.2-0.4,0.2h-2.1c0.5,0.2,0.7,0.5,0.7,0.8c0,0.2-0.1,0.3-0.3,0.4c0,0,0,0,0,0
	c-0.1,0-0.2,0-0.3-0.1c-0.1-0.4-0.3-0.7-0.6-1h-0.7c-0.4,0.5-0.8,0.8-1.3,1.1l-0.1-0.1c0.6-0.6,1.1-1.4,1.5-2.3l0.8,0.4
	c0,0.1-0.1,0.1-0.2,0.1h-0.1c-0.1,0.2-0.2,0.4-0.4,0.5h2.3L140.8,114.4z M137.7,116.7v1.3h2.4v-1.3L137.7,116.7z"/>
<path class="st0" d="M146.8,116.5c0-0.4-0.1-0.6-0.2-0.6c-0.2,0-0.4,0.1-0.6,0.2l-0.1-0.3c0.6-0.2,1.1-0.5,1.6-0.8l0.1,0.1v5.6
	c0,0.7,0,0.7,0.9,0.7v0.3h-2.5v-0.3c0.9,0,0.9-0.1,0.9-0.7V116.5z"/>
<path class="st0" d="M153.6,118.2c0-0.5,0.4-0.9,0.9-0.9s0.9,0.4,0.9,0.9s-0.4,0.9-0.9,0.9C154,119.2,153.6,118.8,153.6,118.2z"/>
<path class="st0" d="M164.1,120.3l-0.3,1.4h-4l-0.1-0.1c0.3-1.4,1.2-2.6,2.4-3.4c0.7-0.5,1.1-0.9,1.1-1.6s-0.3-1.3-1.4-1.3
	c-0.6,0-1.2,0.4-1.3,1c-0.1,0.3-0.2,0.4-0.4,0.4s-0.3-0.1-0.3-0.4c0-0.5,0.6-1.4,2.1-1.4c1.7,0,2.1,1,2.1,1.7
	c-0.1,0.7-0.5,1.4-1.1,1.8c-1.2,0.8-2.2,1.5-2.6,2.8h2.6c0.6,0,0.7-0.1,0.9-0.9L164.1,120.3z"/>
<path class="st0" d="M170,115.3l0.7,0.5c-0.1,0.1-0.2,0.2-0.4,0.2h-2.9v-0.2h2.3L170,115.3z M170.4,114.6c-0.1,0.1-0.2,0.2-0.4,0.2
	h-2.1l-0.1-0.2h1.6l0.4-0.5L170.4,114.6z M169.4,116.9l0.4-0.4l0.7,0.5c-0.1,0.1-0.2,0.2-0.4,0.2h-2.1l-0.1-0.2H169.4z M170.4,118.2
	c-0.1,0.1-0.2,0.2-0.4,0.2h-2.1l-0.1-0.2h1.6l0.4-0.4L170.4,118.2z M169.8,119l0.7,0.5c-0.1,0.1-0.2,0.1-0.4,0.2v2.2
	c-0.1,0.2-0.3,0.2-0.6,0.2v-0.5h-1.3v0.7c0,0-0.1,0.2-0.5,0.2v-3.4l0.6,0.3h1.1L169.8,119z M168.3,121.4h1.3v-1.8h-1.3V121.4z
	 M175.6,120l0.6,0.5c-0.1,0.1-0.2,0.2-0.4,0.2h-0.5v1c0,0.5-0.1,0.8-0.9,0.9c0-0.5-0.3-0.6-1-0.6v-0.1h1.1c0.1,0,0.2,0,0.2-0.1v-0.9
	h-3v1.6c0,0-0.1,0.2-0.6,0.2v-1.8h-0.7l-0.1-0.2h0.8V118l0.6,0.3h1.1v-0.8h-2.3l-0.1-0.2h1.4v-0.9H171l-0.1-0.2h0.8v-0.8h-1.1v-0.2
	h1.2v-1l1,0.1c0,0.1-0.1,0.2-0.4,0.3v0.7h1.2v-1l1,0.1c0,0.1-0.1,0.2-0.4,0.3v0.7h0.4l0.4-0.5l0.7,0.5c-0.1,0.1-0.2,0.2-0.4,0.2h-1
	v0.8h0.1l0.4-0.5l0.7,0.5c-0.1,0.1-0.2,0.2-0.4,0.2h-0.8v0.9h0.5l0.4-0.5l0.7,0.5c-0.1,0.1-0.2,0.2-0.4,0.2h-2.2v0.8h1.2l0.3-0.4
	l0.8,0.6c-0.1,0.1-0.2,0.2-0.4,0.2v1.9l0,0L175.6,120z M172.7,118.4h-1.2v0.9h1.2V118.4z M171.6,119.5v0.9h1.2v-0.9H171.6z
	 M172.4,115.3v0.8h1.4v-0.8H172.4z M172.4,117.2h1.4v-0.9h-1.4L172.4,117.2z M174.6,118.4h-1.2v0.9h1.3L174.6,118.4z M173.3,120.4
	h1.3v-0.9h-1.2L173.3,120.4z"/>
<path class="st0" d="M176.6,117.3h3.9v-0.9h-2.9v-0.2h3v-0.9h-3.5l-0.1-0.2h2.4c-0.1,0-0.1-0.1-0.2-0.1c-0.2-0.4-0.4-0.7-0.7-1
	l0.1-0.1c1,0.1,1.3,0.5,1.3,0.9c0,0.2-0.1,0.3-0.2,0.4h2.2c0.3-0.4,0.5-0.8,0.7-1.2l0.9,0.4c0,0.1-0.1,0.1-0.2,0.1h-0.2
	c-0.3,0.3-0.6,0.5-0.9,0.8h1.4l0.4-0.5l0.8,0.5c-0.1,0.1-0.2,0.2-0.4,0.2h-3.1v0.9h2l0.4-0.5l0.8,0.5c-0.1,0.1-0.2,0.2-0.4,0.2h-2.7
	v0.9h2.7l0.4-0.5l0.8,0.5c-0.1,0.1-0.2,0.2-0.4,0.2h-8L176.6,117.3z M185,121l-0.1,0.9c0.2,0.1,0.3,0.3,0.3,0.4s-0.2,0.2-0.4,0.2
	c-0.2,0-0.5-0.1-0.7-0.1c-0.6-0.2-1.1-0.5-1.6-0.9c-0.8,0.5-1.7,0.8-2.6,0.9l-0.1-0.2c0.9-0.2,1.7-0.6,2.4-1.1
	c-0.3-0.5-0.6-1-0.7-1.6h-2.2v0.8l1.8-0.1v0.2l-1.8,0.3v0.9c0,0.5-0.1,0.8-0.9,0.9c0-0.4-0.2-0.5-0.9-0.6v-0.1h1.1
	c0.1,0,0.2,0,0.2-0.2v-0.9l-1.5,0.2c0,0.1-0.1,0.2-0.2,0.2l-0.3-0.7c0.4,0,1.2,0,2.1-0.1v-0.9h-2l-0.1-0.2h2.1v-0.8
	c-0.6,0.1-1.3,0.1-1.9,0.1l-0.1-0.2c1.2-0.1,2.5-0.4,3.6-0.8l0.6,0.6c-0.1,0-0.1,0-0.2,0c-0.1,0-0.2,0-0.3-0.1
	c-0.3,0-0.6,0.1-0.9,0.1c0,0.1-0.1,0.1-0.4,0.1v0.8h2.2c-0.1-0.5-0.2-1-0.2-1.6l0.9,0.1c0,0.1-0.1,0.2-0.3,0.2
	c0,0.4,0.1,0.9,0.2,1.3h1.8l0.4-0.5l0.8,0.5c-0.1,0.1-0.2,0.2-0.4,0.2h-2.5c0.1,0.5,0.3,0.9,0.6,1.3c0.4-0.3,0.7-0.6,0.9-1l0.8,0.4
	c0,0.1-0.1,0.1-0.2,0.1h-0.1c-0.3,0.4-0.6,0.7-1,0.9c0.4,0.4,0.9,0.6,1.4,0.7c0.1,0,0.1,0,0.1-0.1C184.8,121.5,184.9,121.3,185,121
	L185,121z M182.8,117.9c0.9,0.1,1.2,0.4,1.2,0.7c0,0.1-0.1,0.3-0.2,0.3c0,0,0,0,0,0c-0.1,0-0.1,0-0.2-0.1
	C183.4,118.4,183.1,118.2,182.8,117.9L182.8,117.9z"/>
<path class="st0" d="M187.9,116.4v1.3c1,0.4,1.3,0.9,1.3,1.3c0,0.2-0.1,0.3-0.3,0.3c0,0,0,0,0,0c-0.1,0-0.2,0-0.3-0.1
	c-0.2-0.5-0.4-0.9-0.8-1.3v4.5c0,0-0.1,0.2-0.6,0.2V118c-0.3,0.9-0.8,1.6-1.4,2.3l-0.1-0.1c0.7-1.2,1.2-2.5,1.5-3.9h-1.3l-0.1-0.2
	h1.5v-2.1l1,0.1c0,0.1-0.1,0.2-0.4,0.2v1.8h0.4l0.4-0.5l0.7,0.6c-0.1,0.1-0.2,0.2-0.4,0.2L187.9,116.4z M193.4,119.2h-1.2
	c0.6,0.9,1.4,1.7,2.4,2.1v0.1c-0.3,0-0.5,0.2-0.5,0.5c-0.9-0.7-1.6-1.6-2-2.6v2.9c0,0-0.1,0.2-0.6,0.2v-2.8c-0.7,1-1.7,1.8-2.8,2.3
	l-0.1-0.2c1.1-0.6,1.9-1.5,2.5-2.6h-1v0.2c-0.1,0.1-0.3,0.2-0.5,0.2h-0.1v-3.4l0.7,0.3h1.2v-1h-2.2l-0.1-0.2h2.3V114l1,0.1
	c0,0.1-0.1,0.2-0.4,0.2v0.9h1.3l0.4-0.5l0.8,0.6c-0.1,0.1-0.2,0.2-0.4,0.2h-2v1h1.3l0.3-0.4l0.8,0.6c-0.1,0.1-0.2,0.2-0.4,0.2v2.4
	c-0.2,0.1-0.4,0.2-0.6,0.2L193.4,119.2z M191.4,116.7H190v1.1h1.3V116.7z M190,119h1.3v-1H190V119z M193.3,116.7h-1.4v1.1h1.4V116.7
	z M191.9,119h1.4v-1h-1.4V119z"/>
<path class="st0" d="M151.7,169.4c0.8,0,0.8-0.1,0.8-0.7v-4.8c0-0.7-0.1-0.7-0.8-0.7v-0.3h2.4v0.3c-0.7,0-0.8,0-0.8,0.7v4.8
	c0,0.7,0,0.7,0.8,0.7v0.3h-2.4V169.4z"/>
<path class="st0" d="M157.6,163.2v5.4c0,0.7,0,0.7,0.9,0.7v0.3H156v-0.3c0.8,0,0.9-0.1,0.9-0.7v-5.4h-1.1c-0.5,0-0.6,0-0.8,1.1h-0.3
	l0.2-1.6h4.9l0.2,1.6h-0.3c-0.2-1.1-0.3-1.1-0.8-1.1L157.6,163.2z"/>
<path class="st0" d="M171.2,164c-0.1,0.1-0.2,0.2-0.4,0.2h-0.3c-0.1,1.3-0.5,2.6-1.2,3.8c0.5,0.8,1.2,1.4,2,1.9v0.1
	c-0.3,0-0.5,0.2-0.6,0.4c-0.7-0.5-1.3-1.2-1.8-2c-0.6,0.9-1.5,1.6-2.5,2l-0.1-0.1c1-0.6,1.8-1.3,2.3-2.3c-0.4-1-0.7-2-0.9-3.1
	c-0.2,0.5-0.5,0.9-0.8,1.3h-0.1c-0.1,0-0.2,0.1-0.3,0.1c-0.4,0.3-0.7,0.5-1.1,0.7h0.1c0,0.1-0.1,0.2-0.4,0.2v0.5l2.1-0.3v0.1
	c-0.6,0.2-1.3,0.4-2.1,0.6v1.4c0,0.5-0.1,0.8-0.9,0.9c0-0.4-0.3-0.5-1-0.6v-0.1h1.1c0.2,0,0.2-0.1,0.2-0.2v-1.3l-1.5,0.4
	c0,0.1-0.1,0.2-0.2,0.2l-0.3-0.8c0.4,0,1.1-0.1,2-0.2v-1h0.6c0.3-0.2,0.5-0.5,0.7-0.8h-1.5c-0.5,0.5-1.1,0.9-1.8,1.3l-0.1-0.1
	c0.5-0.3,0.9-0.7,1.3-1.1H163l-0.1-0.2h1.1c0.3-0.3,0.6-0.6,0.9-1h-2.1v-0.2h1.7v-1.3h-1.3l-0.1-0.2h1.3v-1.2l1,0.1
	c0,0.1-0.1,0.2-0.4,0.3v0.9h0.4l0.4-0.5l0.5,0.4c0.2-0.3,0.3-0.6,0.5-0.9l0.9,0.4c0,0.1-0.1,0.1-0.2,0.1h-0.1
	c-0.4,0.8-0.9,1.5-1.5,2.2h0.6l0.4-0.5l0.7,0.5c0.3-0.9,0.5-1.8,0.6-2.7l1,0.2c0,0.1-0.1,0.2-0.3,0.2c-0.1,0.6-0.3,1.1-0.5,1.7h1.8
	l0.4-0.6L171.2,164z M166.3,165.4l0.6,0.5c0.2-0.4,0.4-0.8,0.5-1.3c-0.1,0.1-0.2,0.1-0.4,0.1h-1.5c-0.3,0.4-0.6,0.7-1,1h1.4
	L166.3,165.4z M164.9,164.6h0.2c0.3-0.4,0.6-0.8,0.9-1.3h-1.1V164.6z M168,164.5c0.2,1,0.5,2.1,1,3c0.5-1,0.7-2.1,0.9-3.3h-1.7
	L168,164.5z"/>
<path class="st0" d="M179.6,162.4l0.8,0.6c-0.1,0.1-0.2,0.2-0.4,0.2h-4.4l0.4,0.2c0,0.1-0.1,0.1-0.2,0.1h-0.2
	c-0.4,0.4-0.8,0.8-1.2,1.2c1.2,0,2.6,0,4.1,0c-0.4-0.3-0.9-0.6-1.4-0.8v-0.1c2.1,0.3,2.8,1.2,2.8,1.6c0,0.1-0.1,0.3-0.2,0.3
	c0,0,0,0,0,0c-0.1,0-0.1,0-0.2,0c-0.2-0.3-0.5-0.6-0.8-0.8c-1.4,0.1-3.3,0.3-5.9,0.4c0,0.1-0.1,0.2-0.3,0.2l-0.4-0.8h1.8
	c0.3-0.4,0.6-1,0.9-1.4h-3v-0.2h3.9V162l1,0.1c0,0.1-0.1,0.2-0.4,0.3v0.8h2.7L179.6,162.4z M178.1,165.9l0.3-0.4l0.8,0.6
	c-0.1,0.1-0.3,0.2-0.4,0.2v3.3c0,0.4-0.1,0.7-1,0.8c0-0.5-0.4-0.5-1-0.6v-0.1h1.1c0.2,0,0.2,0,0.2-0.1v-1H174v1.6
	c0,0-0.1,0.2-0.6,0.2v-4.8l0.6,0.3L178.1,165.9z M178.2,166.1H174v1h4.1V166.1z M174,168.4h4.1v-1H174V168.4z"/>
<path class="st0" d="M189,165.4l0.8,0.6c-0.1,0.1-0.3,0.2-0.4,0.2h-1v4.1c0,0.1-0.2,0.2-0.5,0.2h0v-4.3h-1.5
	c0.1,1.8-0.8,3.5-2.4,4.3l-0.1-0.1c1.3-1,2-2.5,1.9-4.2h-1l-0.1-0.2h1.1v-3h-0.9v-0.1c-0.1,0-0.2,0-0.2,0H183
	c-0.1,0.8-0.4,1.7-0.7,2.5l0.2,0.1h1.1l0.3-0.4l0.8,0.6c-0.1,0.1-0.3,0.2-0.4,0.2v3.4c0,0-0.2,0.2-0.6,0.2v-0.7h-1.3v1.1
	c-0.1,0.1-0.3,0.2-0.5,0.2h-0.1v-3.7c-0.2,0.4-0.4,0.7-0.7,1.1l-0.1-0.1c0.7-1.4,1.2-2.9,1.4-4.4h-1.2l-0.1-0.2h2.6l0.4-0.6l0.8,0.6
	l0,0h3.3l0.4-0.5l0.8,0.6c-0.1,0.1-0.2,0.2-0.4,0.2h-0.7v3h0.3L189,165.4z M183.7,165.6h-1.3v2.9h1.3V165.6z M186.3,165.9h1.4v-3
	h-1.5L186.3,165.9z"/>
<path class="st0" d="M198.6,168.6v1.1c0.2,0.1,0.3,0.1,0.3,0.2s-0.2,0.4-0.8,0.4h-1c-0.7,0-0.7-0.1-0.7-0.8v-2.3h-2.1
	c-0.4,1.5-1.4,2.7-3.8,3.3l-0.1-0.2c1.6-0.3,2.9-1.5,3.2-3.1h-2.6l-0.1-0.2h2.8c0.1-0.5,0.1-1,0.1-1.6l1.1,0.1
	c0,0.1-0.1,0.2-0.4,0.2c0,0.4-0.1,0.8-0.1,1.2h2l0.3-0.4l0.7,0.6c-0.1,0.1-0.2,0.1-0.3,0.1v2.2c0,0.2,0,0.2,0.2,0.2h1
	c0.1,0,0.2,0,0.2-0.1C198.4,169.3,198.5,169,198.6,168.6L198.6,168.6z M190.4,166.2c1.4-0.3,2.5-1.5,2.7-2.9h-1.5
	c0,0.8-0.5,1.2-0.9,1.2c-0.2,0-0.4-0.1-0.4-0.3c0-0.2,0.1-0.3,0.3-0.4c0.4-0.2,0.7-0.7,0.7-1.1h0.2c0,0.1,0.1,0.3,0.1,0.4h2.7v-1.2
	l1,0.1c0,0.1-0.1,0.2-0.4,0.3v0.9h2.8l0.4-0.4l0.7,0.7c-0.1,0.1-0.2,0.1-0.4,0.1c-0.3,0.4-0.7,0.7-1.1,1l-0.1-0.1
	c0.2-0.3,0.3-0.7,0.4-1.1h-1.6c-0.1,0-0.1,0-0.2,0.1v1.8c0,0.2,0,0.2,0.3,0.2h1.4c0.1,0,0.2,0,0.3-0.1c0.1-0.2,0.2-0.5,0.3-0.7h0.1
	v0.7c0.3,0.1,0.3,0.1,0.3,0.2c0,0.3-0.2,0.4-1,0.4h-1.5c-0.7,0-0.9-0.1-0.9-0.7v-1.8h-1.5h0.3c0,0.1-0.1,0.2-0.4,0.2
	c-0.2,1.3-1,2.3-3.2,2.9L190.4,166.2z"/>
<path class="st0" d="M201.7,162.7c0.1-0.2,0.3-0.3,0.5-0.3c0.5,0,1.1,0.2,1.1,0.6c0,0.1-0.1,0.1-0.1,0.3c0,0.1-0.1,0.2-0.1,0.3
	c0,0.5-0.1,1.1-0.1,1.7c1-0.2,2.5-0.6,3-0.8c0.1,0,0.2-0.1,0.3-0.2c0.1-0.1,0.2-0.3,0.3-0.3s0.9,0.5,0.9,0.7s-0.1,0.1-0.3,0.2
	c-0.1,0-0.2,0.1-0.3,0.2c-0.5,0.8-1.1,1.5-1.9,2.1l-0.2-0.1c0.6-0.7,1-1.4,1.3-2.3c0,0,0-0.1-0.1-0.1s-1.7,0.5-3.2,1
	c-0.1,0.8-0.1,0.9-0.1,1.7c0,1.5,0.3,1.7,1.5,1.7c0.6,0,1.3,0,1.9-0.3c0.4,0.1,0.9,0.2,0.9,0.4s-0.4,0.3-0.9,0.3s-1.6,0-2.1,0
	c-1.5,0-1.9-0.5-1.9-2.3c0-0.4,0-0.9,0-1.4c-0.5,0.1-0.9,0.3-1.3,0.5c-0.1,0.1-0.2,0.1-0.3,0.1c-0.5-0.1-0.8-0.4-0.9-0.9
	c0-0.3,0.1-0.4,0.2-0.4c0.1,0.3,0.4,0.5,0.7,0.5c0.6,0,1.1-0.2,1.7-0.3l0.1-2c0-0.4-0.1-0.5-0.2-0.6
	C202.1,162.7,201.9,162.7,201.7,162.7L201.7,162.7z"/>
<path class="st0" d="M209.8,163.1c1,0.1,2.6,0.7,2.6,1.5c0,0.2-0.1,0.4-0.3,0.4c0,0,0,0,0,0c-0.2,0-0.4-0.2-0.5-0.4
	c-0.5-0.6-1.1-1-1.8-1.3L209.8,163.1z M217,163.8c-1.1,2.4-3.1,4.4-5.5,5.5c-0.4,0.2-0.4,0.4-0.6,0.4c-0.5-0.1-0.9-0.5-1-1
	c0-0.2,0.1-0.3,0.2-0.4c0.1,0.3,0.3,0.5,0.6,0.5c0.7,0,4.4-1.9,6.1-5.1L217,163.8z"/>
<path class="st0" d="M218.8,166.5c1.3-0.9,2.2-2.3,2.7-3.8c0-0.2-0.4-0.3-0.6-0.3c0-0.2,0.2-0.3,0.4-0.3c0.4,0,1.1,0.3,1.1,0.6
	c0,0.1-0.1,0.2-0.2,0.2c-0.1,0.1-0.2,0.2-0.3,0.3c-0.1,0.2-0.2,0.3-0.3,0.4c0.1,0,0.2,0,0.3,0c0.3,0,1.4-0.1,2-0.1
	c0.2,0,0.2,0,0.3-0.1c0.1-0.1,0.2-0.1,0.3-0.2c0.3,0.1,0.6,0.4,0.8,0.7c0,0.1-0.1,0.1-0.2,0.2c-0.1,0-0.2,0.1-0.3,0.2
	c-0.3,0.8-0.7,1.5-1.1,2.2c0.5,0.3,1,0.7,1,1.1c0,0.2-0.1,0.3-0.3,0.3c0,0,0,0,0,0c-0.2,0-0.3-0.2-0.5-0.4c-0.2-0.2-0.4-0.4-0.6-0.5
	c-1.1,1.3-2.5,2.3-4.1,2.9l-0.1-0.2c1.5-0.7,2.7-1.7,3.7-3c-0.6-0.4-1.3-0.7-2-0.9l0.1-0.2c0.8,0.1,1.5,0.3,2.2,0.7
	c0.5-0.7,0.9-1.5,1.1-2.4c0,0,0-0.1-0.1-0.1c-0.4,0-2.1,0.3-2.2,0.3c-0.1,0-0.3,0-0.4-0.1c-0.7,1-1.6,1.9-2.6,2.5L218.8,166.5z"/>
<path class="st0" d="M233.2,165.8c0.6,0,1-0.1,1.1-0.1c0.5,0,1,0.1,1,0.4s-0.2,0.2-0.5,0.2h-2.2c-1.3,0-2.7,0-4,0.2
	c-0.1,0.1-0.3,0.1-0.4,0.1c-0.5-0.1-0.8-0.5-1-0.9c0-0.2,0-0.3,0.2-0.5h0.1c0.1,0.5,0.5,0.6,1.4,0.6L233.2,165.8z"/>
<path class="st0" d="M180.9,229.2l-0.1,1.4c0.2,0.2,0.3,0.3,0.3,0.4c0,0.2-0.2,0.3-0.3,0.3c-0.7-0.2-1.4-0.6-1.8-1.2
	c-0.7,0.6-1.6,1-2.5,1.1l-0.1-0.2c0.9-0.3,1.6-0.8,2.3-1.4c-0.3-0.6-0.5-1.1-0.6-1.8h-1.6c0,0.3,0,0.6-0.1,0.8
	c0.9,0.2,1.2,0.6,1.2,0.9c0,0.2-0.1,0.3-0.3,0.3c0,0,0,0,0,0c-0.1,0-0.2,0-0.2-0.1c-0.1-0.4-0.4-0.7-0.7-1c-0.1,1-0.7,1.9-1.5,2.4
	l-0.1-0.1c0.8-0.9,1.2-2.1,1.1-3.3h-0.5c0,0.1-0.1,0.2-0.3,0.3c-0.1,0-0.2,0-0.2-0.1c-0.1-0.5-0.3-0.9-0.6-1.3v4.4
	c0,0.1-0.1,0.2-0.6,0.2V227c-0.3,0.7-0.7,1.4-1.1,2.1l-0.1-0.1c0.6-1.2,1-2.5,1.2-3.9h-1.1l-0.1-0.2h1.3v-2.2l1,0.1
	c0,0.1-0.1,0.2-0.4,0.2v1.9h0.3l0.4-0.5l0.7,0.6c-0.1,0.1-0.2,0.2-0.4,0.2h-0.9v1.4c0.8,0.4,1.1,0.8,1.1,1.1h2.6
	c-0.3-1.6-0.4-3.3-0.4-4.9l1,0.1c0,0.1-0.1,0.2-0.4,0.2c0,1.5,0.1,3.1,0.4,4.6h1.4l0.4-0.5l0.8,0.6c-0.1,0.1-0.2,0.2-0.4,0.2h-2
	c0.1,0.5,0.2,0.9,0.4,1.3c0.3-0.3,0.5-0.7,0.7-1.1l0.7,0.5c0,0.1-0.1,0.1-0.2,0.1c-0.1,0-0.1,0-0.2,0c-0.2,0.4-0.5,0.7-0.8,1.1
	c0.2,0.3,0.5,0.6,0.8,0.8c0,0,0.1,0.1,0.1,0.1c0.1,0,0.1,0,0.1-0.2C180.7,229.9,180.8,229.5,180.9,229.2L180.9,229.2z M175.2,226.4
	h0.6c0.4-0.8,0.7-1.6,1-2.4l0.8,0.3c0,0.1-0.1,0.1-0.3,0.1c-0.4,0.7-0.8,1.4-1.2,2l1-0.1c-0.1-0.2-0.2-0.5-0.3-0.7l0.1-0.1
	c0.7,0.4,0.9,0.8,0.9,1s-0.1,0.4-0.3,0.4c-0.1,0-0.2-0.1-0.2-0.1c0-0.2-0.1-0.3-0.1-0.5c-0.4,0.1-0.8,0.3-1.5,0.4
	c0,0.1-0.1,0.2-0.2,0.2L175.2,226.4z M175.3,224.1c0.1,0,0.3,0.1,0.4,0.1c0.1-0.4,0.3-1,0.5-1.5l0.8,0.3c0,0.1-0.1,0.1-0.3,0.1
	c-0.2,0.4-0.5,0.9-0.8,1.2c0.2,0.1,0.4,0.3,0.4,0.6c0,0.2-0.1,0.3-0.3,0.3c0,0,0,0,0,0c-0.1,0-0.2,0-0.2-0.1
	C175.7,224.8,175.5,224.4,175.3,224.1L175.3,224.1z M180.2,223c0,0.1-0.1,0.1-0.3,0.1c-0.3,0.4-0.5,0.8-0.8,1.2
	c0.2,0.1,0.4,0.3,0.4,0.6c0,0.2-0.1,0.3-0.2,0.3c0,0,0,0,0,0c-0.1,0-0.2,0-0.2-0.1c-0.1-0.4-0.3-0.7-0.6-1l0.1-0.1
	c0.1,0,0.3,0.1,0.4,0.2c0.1-0.4,0.4-1,0.5-1.5L180.2,223z M178.5,226.1h0.5c0.4-0.7,0.8-1.5,1.1-2.3l0.8,0.3
	c-0.1,0.1-0.1,0.1-0.3,0.1c-0.4,0.6-0.8,1.3-1.3,1.9l1.1-0.1c-0.1-0.2-0.2-0.4-0.3-0.6l0.1-0.1c0.7,0.4,0.9,0.8,0.9,1.1
	s-0.1,0.4-0.3,0.4c-0.1,0-0.2,0-0.2-0.1c0-0.2,0-0.3-0.1-0.5c-0.4,0.1-0.9,0.2-1.5,0.4c0,0.1-0.1,0.2-0.2,0.2L178.5,226.1z
	 M179.1,226.6c0.7,0,0.9,0.3,0.9,0.5c0,0.2-0.1,0.3-0.3,0.3c-0.1,0-0.1,0-0.2-0.1C179.5,227.1,179.3,226.8,179.1,226.6L179.1,226.6z
	"/>
<path class="st0" d="M190.2,229l-0.2,1.4c0.1,0.2,0.2,0.4,0.2,0.6c0,0.1-0.1,0.2-0.3,0.2c-0.5,0-1.1-0.8-1.6-1.9
	c-0.6,0.8-1.4,1.4-2.3,1.8L186,231c0.9-0.5,1.7-1.3,2.2-2.3c-0.1-0.5-0.2-0.9-0.3-1.4c-0.1,0.1-0.2,0.2-0.4,0.2H187v2.2
	c0,0-0.1,0.2-0.5,0.2v-2.4h-0.7c0.1,1.3-0.4,2.5-1.2,3.4l-0.1-0.1c0.6-1,0.9-2.2,0.9-3.3h-0.4c0,0.3-0.1,0.4-0.3,0.4
	c-0.1,0-0.2,0-0.2-0.1c-0.2-0.5-0.4-0.9-0.7-1.3v4.4c0,0-0.1,0.2-0.6,0.2v-4.3c-0.3,0.8-0.8,1.5-1.4,2.2l-0.1-0.1
	c0.7-1.2,1.2-2.5,1.4-3.9h-1.2l-0.1-0.2h1.4v-2.2l1,0.1c0,0.1-0.1,0.2-0.4,0.2v1.9h0.3l0.4-0.5l0.6,0.4v-0.2h2.8c0-0.6,0-1.3,0-1.9
	l1,0.1c0,0.1-0.1,0.2-0.4,0.2c0,0.5,0,1.1,0,1.6h0.8l0.4-0.5l0.8,0.6c-0.1,0.1-0.2,0.2-0.4,0.2h-1.7c0,1.1,0.1,2.1,0.3,3.1
	c0.3-0.7,0.5-1.4,0.6-2.2l0.9,0.3c0,0.1-0.1,0.1-0.4,0.1c-0.2,0.9-0.5,1.8-1,2.6c0.1,0.6,0.4,1.1,0.8,1.5
	C189.8,229.8,190,229.4,190.2,229L190.2,229z M187.3,226.9l0.6,0.5c-0.1-0.8-0.2-1.6-0.2-2.5H185l0.1,0.1c-0.1,0.1-0.2,0.2-0.4,0.2
	h-1v1.3c0.5,0.2,0.9,0.5,1.1,0.9h0.5v-1.6l0.9,0.1c0,0.1-0.1,0.2-0.4,0.2v1.3h0.7v-1.6l0.9,0.1c0,0.1-0.1,0.2-0.4,0.2v1.3h0.1
	L187.3,226.9z M188.9,222.9c0.8,0.2,1.1,0.6,1.1,0.8c0,0.2-0.1,0.3-0.3,0.3c0,0,0,0,0,0c-0.1,0-0.2,0-0.2-0.1
	C189.4,223.5,189.2,223.2,188.9,222.9L188.9,222.9z"/>
<path class="st0" d="M198.6,229.6l0.9,0.6c-0.1,0.1-0.2,0.2-0.4,0.2h-8.1l-0.1-0.2h3.9v-5.9h-3.2l-0.1-0.2h5.9l0.5-0.6l0.9,0.6
	c-0.1,0.1-0.2,0.2-0.4,0.2h-2.9v5.9h2.6L198.6,229.6z"/>
<path class="st0" d="M207.3,228.3l0.4-0.6l0.9,0.6c-0.1,0.1-0.2,0.2-0.4,0.2h-3.4v1.8c0,0.5-0.1,0.9-1.1,0.9c0-0.5-0.4-0.6-1.2-0.6
	v-0.1h1.4c0.2,0,0.2-0.1,0.2-0.2v-1.7h-3.9l-0.1-0.2h4v-0.9h0.6c0.4-0.3,0.9-0.7,1.2-1.1h-4l-0.1-0.2h4.2l0.4-0.4l0.7,0.7
	c-0.1,0.1-0.2,0.1-0.4,0.1c-0.5,0.4-1.1,0.7-1.7,0.9h0.1c0,0.1-0.1,0.2-0.4,0.2v0.6L207.3,228.3z M207.9,224.5l0.8,0.7
	c-0.1,0.1-0.2,0.1-0.4,0.1c-0.3,0.4-0.7,0.7-1.1,1.1l-0.1-0.1c0.2-0.4,0.3-0.8,0.5-1.1h-6.1c0,0.7-0.4,1.2-0.9,1.2
	c-0.3,0-0.3-0.1-0.3-0.3c0-0.2,0.1-0.3,0.3-0.4c0.4-0.2,0.7-0.7,0.7-1.2h0.1c0,0.1,0.1,0.3,0.1,0.4h4.3c0.5-0.7,0.9-1.4,1.3-2.1
	l0.9,0.4c0,0.1-0.1,0.1-0.2,0.1c-0.1,0-0.1,0-0.2,0c-0.5,0.6-1,1.2-1.6,1.6h1.6L207.9,224.5z M201.3,222.9c1,0.4,1.4,0.9,1.4,1.3
	s-0.1,0.4-0.3,0.4c-0.1,0-0.2,0-0.3-0.1C202,223.9,201.7,223.4,201.3,222.9L201.3,222.9z M203.6,222.7c0.9,0.4,1.2,1,1.2,1.4
	s-0.2,0.5-0.4,0.5c-0.1,0-0.2-0.1-0.3-0.1C204.2,223.8,203.9,223.2,203.6,222.7L203.6,222.7z"/>
<path class="st0" d="M211.6,225.7v1.1c1.1,0.4,1.4,1,1.4,1.3s-0.1,0.4-0.3,0.4c-0.1,0-0.2,0-0.2-0.1c-0.2-0.5-0.5-1-0.9-1.4v4
	c-0.1,0.1-0.3,0.2-0.5,0.2H211v-4.1c-0.4,0.9-0.9,1.7-1.6,2.4l-0.1-0.1c0.8-1.1,1.3-2.3,1.6-3.6h-1.4v-0.2h1.6v-1.6
	c-0.5,0.1-1.1,0.3-1.6,0.4l-0.1-0.1c1.1-0.4,2.1-0.8,3-1.4l0.8,0.6c-0.1,0.1-0.1,0.1-0.2,0.1c-0.1,0-0.2,0-0.3-0.1
	c-0.3,0.1-0.6,0.3-1,0.4v1.8h0.5l0.4-0.5l0.7,0.5c-0.1,0.1-0.2,0.2-0.4,0.2H211.6z M217.2,227.3l0.8,0.6c0,0.1-0.1,0.2-0.3,0.2
	l-1.3,0.2v2.6c0,0-0.1,0.2-0.6,0.2v-2.8l-2.9,0.5l-0.1-0.2l3-0.6v-5.5l1,0.1c0,0.1-0.1,0.2-0.4,0.2v5.1l0.5-0.1L217.2,227.3z
	 M213.3,226c1.4,0.2,1.8,0.7,1.8,1.1c0,0.2-0.1,0.3-0.3,0.3c0,0,0,0,0,0c-0.1,0-0.2,0-0.2-0.1c-0.3-0.5-0.8-0.9-1.3-1.2L213.3,226z
	 M213.6,223.6c1.3,0.3,1.7,0.8,1.7,1.2c0,0.2-0.1,0.3-0.3,0.3c0,0,0,0,0,0c-0.1,0-0.2,0-0.3-0.1C214.5,224.5,214.1,224,213.6,223.6
	L213.6,223.6z"/>
<path class="st0" d="M220.6,225.1v1.3c1,0.4,1.3,0.9,1.3,1.3s-0.1,0.4-0.3,0.4c-0.1,0-0.2,0-0.3-0.1c-0.2-0.5-0.4-0.9-0.8-1.3v4.5
	c0,0-0.1,0.2-0.6,0.2v-4.5c-0.3,0.9-0.8,1.6-1.4,2.3l-0.1-0.1c0.8-1.2,1.2-2.5,1.5-3.9h-1.3l-0.1-0.2h1.5v-2.1l1,0.1
	c0,0.1-0.1,0.2-0.4,0.2v1.8h0.4l0.4-0.5l0.7,0.6c-0.1,0.1-0.2,0.2-0.4,0.2H220.6z M226,227.9h-1.2c0.6,0.9,1.4,1.7,2.4,2.1v0.1
	c-0.3,0-0.5,0.2-0.5,0.5c-0.9-0.7-1.6-1.6-2-2.6v2.9c0,0-0.1,0.2-0.6,0.2v-2.8c-0.7,1-1.7,1.8-2.8,2.3l-0.1-0.2
	c1.1-0.6,1.9-1.5,2.6-2.6h-1v0.2c-0.1,0.1-0.3,0.2-0.5,0.2h-0.1v-3.4l0.7,0.3h1.2v-1h-2.3l-0.1-0.2h2.3v-1.2l1,0.1
	c0,0.1-0.1,0.2-0.4,0.2v0.9h1.3l0.4-0.5l0.8,0.6c-0.1,0.1-0.2,0.2-0.4,0.2h-2v1h1.3l0.3-0.4l0.8,0.6c-0.1,0.1-0.3,0.2-0.4,0.2v2.4
	c0,0-0.2,0.2-0.6,0.2L226,227.9z M224.1,225.4h-1.3v1.1h1.3L224.1,225.4z M222.7,227.7h1.3v-1h-1.3V227.7z M226,225.4h-1.4v1.1h1.4
	V225.4z M224.7,227.7h1.4v-1h-1.4V227.7z"/>
<path class="st0" d="M160.2,293.9l-0.1,1.4c0.2,0.2,0.3,0.3,0.3,0.4c0,0.2-0.2,0.3-0.3,0.3c-0.7-0.2-1.4-0.6-1.8-1.2
	c-0.7,0.6-1.6,1-2.5,1.1v-0.2c0.9-0.3,1.6-0.8,2.3-1.4c-0.3-0.6-0.5-1.1-0.6-1.8h-1.6c0,0.3,0,0.5-0.1,0.8c0.9,0.2,1.2,0.6,1.2,0.9
	c0,0.2-0.1,0.3-0.3,0.3c0,0,0,0,0,0c-0.1,0-0.2,0-0.2-0.1c-0.1-0.4-0.4-0.7-0.7-1c-0.1,1-0.6,1.9-1.5,2.4l-0.1-0.1
	c0.8-0.9,1.2-2.1,1.1-3.3h-0.5c0,0.1-0.1,0.2-0.3,0.3c-0.1,0-0.2,0-0.2-0.1c-0.1-0.5-0.3-0.9-0.6-1.3v4.4c0,0-0.1,0.2-0.6,0.2v-4.2
	c-0.3,0.7-0.7,1.4-1.1,2.1l-0.1-0.1c0.6-1.2,1-2.5,1.2-3.9h-1.1l-0.1-0.2h1.2v-2.2l1,0.1c0,0.1-0.1,0.2-0.4,0.2v1.9h0.3l0.4-0.5
	l0.7,0.6c-0.1,0.1-0.2,0.2-0.4,0.2h-0.9v1.4c0.8,0.4,1.1,0.8,1.1,1.1h2.6c-0.3-1.6-0.4-3.3-0.4-4.9l1,0.1c0,0.1-0.1,0.2-0.4,0.2
	c0,1.5,0.1,3.1,0.4,4.6h1.4l0.4-0.5l0.8,0.5c-0.1,0.1-0.2,0.2-0.4,0.2h-2c0.1,0.5,0.2,0.9,0.4,1.3c0.3-0.3,0.5-0.7,0.7-1.1l0.7,0.5
	c0,0.1-0.1,0.1-0.2,0.1c0,0-0.1,0-0.1,0c-0.2,0.4-0.5,0.7-0.9,1.1c0.2,0.3,0.5,0.6,0.8,0.8c0,0,0.1,0.1,0.2,0.1c0,0,0.1,0,0.1-0.2
	C160,294.7,160.2,294.3,160.2,293.9L160.2,293.9z M154.5,291.1h0.6c0.4-0.8,0.7-1.6,1-2.5l0.8,0.3c0,0.1-0.1,0.1-0.3,0.1
	c-0.4,0.7-0.8,1.4-1.2,2l1-0.1c-0.1-0.2-0.2-0.4-0.3-0.6l0.1-0.1c0.7,0.4,0.9,0.8,0.9,1s-0.1,0.4-0.3,0.4c-0.1,0-0.2-0.1-0.2-0.1
	c0-0.2-0.1-0.3-0.1-0.5c-0.4,0.1-0.8,0.3-1.5,0.5c0,0.1-0.1,0.2-0.2,0.2L154.5,291.1z M154.6,288.8c0.1,0,0.3,0.1,0.4,0.1
	c0.1-0.4,0.3-1,0.5-1.5l0.8,0.3c0,0.1-0.1,0.1-0.3,0.1c-0.2,0.4-0.5,0.8-0.8,1.2c0.2,0.1,0.4,0.3,0.4,0.6c0,0.2-0.1,0.3-0.3,0.3
	c-0.1,0-0.2,0-0.2-0.1C155.1,289.5,154.9,289.1,154.6,288.8L154.6,288.8z M159.6,287.7c0,0.1-0.1,0.1-0.3,0.1
	c-0.3,0.4-0.5,0.8-0.8,1.2c0.2,0.1,0.4,0.3,0.4,0.6c0,0.2-0.1,0.3-0.2,0.3c0,0,0,0,0,0c-0.1,0-0.2,0-0.2-0.1c-0.1-0.4-0.3-0.7-0.6-1
	l0.1-0.1c0.1,0,0.3,0.1,0.4,0.2c0.2-0.4,0.4-1,0.5-1.5L159.6,287.7z M157.9,290.8h0.5c0.4-0.8,0.8-1.5,1.1-2.3l0.8,0.3
	c-0.1,0.1-0.1,0.1-0.3,0.1c-0.4,0.6-0.8,1.3-1.3,1.9l1.1-0.1c-0.1-0.2-0.2-0.4-0.3-0.6l0.1-0.1c0.7,0.4,0.9,0.8,0.9,1.1
	s-0.1,0.4-0.3,0.4c-0.1,0-0.2,0-0.2-0.1c0-0.2,0-0.3-0.1-0.5c-0.4,0.1-0.9,0.2-1.5,0.4c0,0.1-0.1,0.2-0.2,0.2L157.9,290.8z
	 M158.5,291.3c0.7,0,0.9,0.3,0.9,0.5c0,0.1-0.1,0.3-0.3,0.3c0,0,0,0,0,0c-0.1,0-0.1,0-0.2-0.1c-0.1-0.3-0.3-0.5-0.5-0.6L158.5,291.3
	z"/>
<path class="st0" d="M169.6,293.7l-0.2,1.4c0.1,0.2,0.2,0.4,0.2,0.5c0,0.1-0.1,0.2-0.3,0.2c-0.5,0-1.1-0.8-1.6-1.9
	c-0.6,0.8-1.4,1.4-2.3,1.8l-0.1-0.1c0.9-0.5,1.7-1.3,2.2-2.3c-0.1-0.5-0.2-0.9-0.3-1.4c-0.1,0.1-0.2,0.2-0.4,0.2h-0.5v2.2
	c0,0-0.1,0.2-0.5,0.2v-2.4h-0.7c0.1,1.3-0.4,2.5-1.2,3.5l-0.1-0.1c0.6-1,0.9-2.2,0.9-3.3h-0.4c0,0.3-0.1,0.5-0.3,0.5
	c-0.1,0-0.1-0.1-0.2-0.1c-0.1-0.5-0.4-0.9-0.7-1.3v4.4c0,0-0.1,0.2-0.6,0.2v-4.3c-0.3,0.8-0.8,1.5-1.4,2.2l-0.1-0.1
	c0.7-1.2,1.2-2.5,1.4-3.9h-1.3v-0.2h1.4v-2.2l1,0.1c0,0.1-0.1,0.2-0.4,0.2v1.9h0.3l0.4-0.5l0.6,0.4v-0.2h2.8c0-0.6,0-1.3,0-1.9
	l1,0.1c0,0.1-0.1,0.2-0.4,0.2c0,0.5,0,1.1,0,1.6h0.8l0.4-0.5l0.8,0.6c-0.1,0.1-0.2,0.2-0.4,0.2h-1.6c0,1.1,0.1,2.1,0.3,3.1
	c0.3-0.7,0.5-1.4,0.6-2.2l0.9,0.3c0,0.1-0.1,0.1-0.4,0.1c-0.2,0.9-0.5,1.8-1,2.5c0.1,0.6,0.4,1.1,0.8,1.5c0.2-0.4,0.4-0.8,0.5-1.2
	L169.6,293.7z M166.7,291.6l0.6,0.5c-0.1-0.8-0.2-1.7-0.2-2.5h-2.7l0.1,0.1c-0.1,0.1-0.2,0.2-0.4,0.2h-1v1.3
	c0.5,0.2,0.9,0.5,1.1,0.9h0.5v-1.6l0.9,0.1c0,0.1-0.1,0.2-0.4,0.2v1.3h0.7v-1.6l0.9,0.1c0,0.1-0.1,0.2-0.4,0.2v1.3l0,0L166.7,291.6z
	 M168.3,287.6c0.9,0.2,1.1,0.6,1.1,0.8c0,0.2-0.1,0.3-0.3,0.3c-0.1,0-0.2,0-0.2-0.1C168.8,288.3,168.6,287.9,168.3,287.6
	L168.3,287.6z"/>
<path class="st0" d="M177.9,294.3l0.9,0.6c-0.1,0.1-0.2,0.2-0.4,0.2h-8.1l-0.1-0.2h3.9v-5.9H171l-0.1-0.2h5.9l0.5-0.6l0.9,0.6
	c-0.1,0.1-0.2,0.2-0.4,0.2h-3v5.9h2.6L177.9,294.3z"/>
<path class="st0" d="M181.2,292.8l1.4-0.4v0.1c-0.6,0.3-1.4,0.7-2.6,1.3c0,0.1-0.1,0.2-0.2,0.2l-0.4-0.8c0.3-0.1,0.7-0.1,1.1-0.3v-3
	h-1l-0.1-0.2h1.1v-2.4l1,0.1c0,0.1-0.1,0.2-0.4,0.2v2h0.3l0.4-0.5l0.7,0.6c-0.1,0.1-0.2,0.2-0.4,0.2h-0.9L181.2,292.8z M188.1,291.4
	c-0.1,0.1-0.2,0.2-0.4,0.2h-3.5c-0.1,0.3-0.3,0.7-0.5,1h3.1l0.3-0.4l0.7,0.6c-0.1,0.1-0.2,0.1-0.4,0.1c-0.1,1.6-0.3,2.5-0.7,2.8
	c-0.3,0.2-0.6,0.3-0.9,0.2c0-0.3,0-0.5-0.8-0.5v-0.2h0.9c0.1,0,0.2,0,0.3-0.1c0.2-0.2,0.4-1,0.5-2.4h-0.7c-0.4,1.3-1.2,2.4-2.4,3.1
	l-0.1-0.2c0.9-0.8,1.5-1.8,1.8-3h-0.7c-0.5,1.2-1.4,2.1-2.5,2.8l-0.1-0.2c0.9-0.7,1.6-1.6,2-2.6h-0.7c-0.5,0.7-1.1,1.2-1.8,1.7
	l-0.1-0.1c0.9-0.7,1.5-1.6,1.9-2.7h-1.3l-0.1-0.2h4.8l0.4-0.5L188.1,291.4z M183.6,290.4v0.3c0,0-0.1,0.2-0.6,0.2v-3.4l0.6,0.3h2.6
	l0.3-0.4l0.8,0.6c-0.1,0.1-0.3,0.2-0.4,0.2v2.5c0,0-0.2,0.2-0.6,0.2v-0.5L183.6,290.4z M186.4,288h-2.8v1h2.8V288z M183.6,290.2h2.8
	v-1h-2.8V290.2z"/>
<path class="st0" d="M18.7,309l0.8,0.6c-0.1,0.1-0.3,0.2-0.4,0.2v7.1c0,0-0.2,0.2-0.6,0.2v-0.6h-6.1v0.5c0,0,0,0.3-0.6,0.3V309
	l0.7,0.3h6L18.7,309z M12.4,316.3h6.2v-6.6h-6.1L12.4,316.3z M13,312.4c0.9,0.2,1.7,0.5,2.6,0.9c0.8-0.9,1.4-1.9,1.9-3l0.9,0.4
	c0,0.1-0.1,0.1-0.2,0.1h-0.2c-0.5,1-1.1,1.9-1.9,2.8c1.3,0.7,1.8,1.4,1.8,1.8c0,0.1-0.1,0.3-0.2,0.3c0,0,0,0,0,0c-0.1,0-0.1,0-0.2,0
	c-0.5-0.6-1.1-1.2-1.7-1.6c-0.8,0.8-1.8,1.5-2.9,2l-0.1-0.1c1-0.5,1.8-1.2,2.6-2.1c-0.7-0.4-1.5-0.8-2.3-1.1L13,312.4z M13,310.4
	c1,0.5,1.3,1,1.3,1.4s-0.2,0.4-0.3,0.4c-0.1,0-0.2,0-0.3-0.1c-0.1-0.6-0.4-1.2-0.8-1.6L13,310.4z M14.7,310c0.9,0.5,1.2,1,1.2,1.4
	s-0.2,0.5-0.3,0.5c-0.1,0-0.2-0.1-0.3-0.1C15.3,311.2,15,310.6,14.7,310L14.7,310z"/>
<path class="st0" d="M27.5,311.8c-0.1,0.1-0.3,0.2-0.5,0.2h-0.1v-0.3H25v0.8h2.2l0.4-0.5l0.8,0.5c-0.1,0.1-0.3,0.2-0.4,0.2H25v0.8
	h2.8l0.4-0.5l0.8,0.5c-0.1,0.1-0.2,0.2-0.4,0.2h-7.9l-0.1-0.2h3.9v-0.8h-3.2l-0.1-0.2h3.2v-0.8h-2.8l-0.1-0.2h2.8v-0.8h-3.9
	l-0.1-0.2h4v-0.8h-2.7l-0.1-0.2h2.8v-0.9l1,0.1c0,0.2-0.1,0.2-0.4,0.3v0.5h1.8l0.3-0.4l0.8,0.6c-0.1,0.1-0.2,0.2-0.4,0.2v0.6h0.4
	l0.4-0.5l0.7,0.5c-0.1,0.1-0.2,0.2-0.4,0.2h-1V311.8z M26.9,314.4l0.3-0.4l0.8,0.6c-0.1,0.1-0.2,0.2-0.4,0.2v2.1
	c-0.2,0.1-0.4,0.2-0.6,0.2v-0.5h-4.5v0.3c0,0-0.1,0.2-0.6,0.2v-3.1l0.7,0.3H26.9z M27,314.6h-4.5v0.8H27L27,314.6z M22.5,316.5H27
	v-0.9h-4.5V316.5z M25,309.7v0.8h1.9v-0.8H25z M25,311.5h1.9v-0.8H25L25,311.5z"/>
<path class="st0" d="M33,314.2c-0.1,0.1-0.3,0.1-0.5,0.1h-0.1v-0.4h-1.6v1.9l1.4-0.3c-0.2-0.3-0.4-0.6-0.7-0.9l0.1-0.1
	c1.1,0.5,1.5,1.1,1.5,1.5c0,0.3-0.1,0.4-0.3,0.4c-0.1,0-0.2,0-0.3-0.1c-0.1-0.3-0.1-0.5-0.3-0.7c-0.5,0.2-1.2,0.6-2,1
	c0,0.1-0.1,0.2-0.2,0.2l-0.4-0.8l0.6-0.1v-4.7c-0.2,0.2-0.3,0.4-0.5,0.5l-0.1-0.1c0.7-0.9,1.2-2,1.5-3.1l1,0.1
	c0,0.1-0.1,0.2-0.3,0.2c1.2,0.4,1.6,1,1.6,1.3c0,0.2-0.1,0.4-0.3,0.4c0,0,0,0,0,0c-0.1,0-0.2,0-0.2-0.1c-0.2-0.6-0.6-1.1-1.1-1.5
	c-0.3,0.7-0.8,1.4-1.3,2l0.4,0.2h0.5v-1l0.9,0.1c0,0.1-0.1,0.1-0.3,0.2v0.8h0.5l0.2-0.3l0.7,0.5c-0.1,0.1-0.2,0.1-0.3,0.1L33,314.2z
	 M32.4,311.5h-1.6v1h1.6V311.5z M30.8,313.7h1.6v-1h-1.6V313.7z M37.6,309.6l0.7,0.7c-0.1,0.1-0.2,0.1-0.3,0.1
	c-0.2,0.3-0.5,0.5-0.8,0.8l-0.1-0.1c0.1-0.2,0.2-0.6,0.2-0.9h-3.1c0,0.5-0.2,1-0.7,1c-0.1,0-0.3-0.1-0.3-0.2c0-0.1,0.1-0.3,0.2-0.4
	c0.3-0.2,0.5-0.6,0.5-1h0.2c0,0.1,0,0.2,0.1,0.4h1.2v-1.4l1,0.1c0,0.1-0.1,0.2-0.4,0.2v1h1.2L37.6,309.6z M36.9,314.3l0.3-0.4
	l0.8,0.5c-0.1,0.1-0.2,0.1-0.3,0.2v2.2c-0.1,0.2-0.4,0.2-0.6,0.2v-0.6h-2.5v0.5c0,0-0.1,0.2-0.6,0.2v-6.1l0.6,0.3h2.1l0.3-0.3
	l0.8,0.5c-0.1,0.1-0.2,0.1-0.4,0.2v1.8c0,0-0.2,0.2-0.6,0.2v-0.5h-2.2v1.1L36.9,314.3z M36.7,311.5h-2.2v1.4h2.2V311.5z M34.5,316.2
	H37v-1.7h-2.5V316.2z"/>
<path class="st0" d="M47.3,238.9l0.4-3.3h2.5c0.3,0,0.4,0,0.4-0.2H51l-0.2,0.8h-2.7l-0.4,2.1l0,0c0.4-0.3,0.9-0.4,1.4-0.4
	c1.1-0.1,2,0.7,2.1,1.8c0,0.1,0,0.2,0,0.3c0.1,1.2-0.7,2.2-1.9,2.4c-0.1,0-0.2,0-0.3,0c-1.2,0-2-0.8-2-1.3c0-0.3,0.2-0.4,0.3-0.4
	s0.3,0.1,0.4,0.3c0.1,0.6,0.7,1.1,1.3,1.1c0.7,0,1.4-0.5,1.4-2c0-0.9-0.3-1.8-1.5-1.8c-0.6,0-1.1,0.3-1.4,0.7L47.3,238.9z"/>
<path class="st0" d="M54.9,240.9c0,0.7,0,2.4-1.7,2.4c-0.8,0-1.3-0.4-1.3-0.7c0-0.1,0.1-0.3,0.2-0.3c0,0,0,0,0,0
	c0.2,0,0.3,0.1,0.5,0.3c0.1,0.2,0.4,0.3,0.6,0.3c0.8,0,0.9-0.7,0.9-1.8v-4.6c0-0.7-0.1-0.7-0.8-0.7v-0.3h2.3v0.3
	c-0.7,0-0.7,0.1-0.7,0.7L54.9,240.9z"/>
<path class="st0" d="M49.7,267c0,0.1-0.1,0.2-0.3,0.2c-0.3,0.7-0.6,1.4-0.9,2l0.4,0.1c0,0.1-0.1,0.1-0.3,0.2v5.5
	c-0.1,0.1-0.3,0.2-0.5,0.2h-0.1v-5.1c-0.3,0.6-0.7,1.1-1.2,1.5l-0.1-0.1c1-1.5,1.7-3.1,2.1-4.8L49.7,267z M55.2,269.2
	c-0.1,0.1-0.2,0.2-0.4,0.2h-2.2c0.5,1.5,1.5,2.9,2.8,3.8v0.1c-0.3,0-0.5,0.2-0.6,0.5c-1.2-1.2-2-2.8-2.3-4.5v5.6
	c0,0-0.1,0.3-0.6,0.3v-5.1c-0.6,1.5-1.7,2.8-3,3.8l-0.1-0.1c1.2-1.2,2.1-2.8,2.7-4.4h-2.2l-0.1-0.2h2.6v-2.5l1,0.1
	c0,0.1-0.1,0.2-0.4,0.2v2.2h1.6l0.4-0.6L55.2,269.2z"/>
<path class="st0" d="M55.9,268.7h1.9v-1.1c-0.6,0.1-1.1,0.1-1.7,0.1v-0.2c1.2-0.2,2.3-0.4,3.4-0.8l0.6,0.6c0,0-0.1,0.1-0.2,0.1
	c-0.1,0-0.2,0-0.3-0.1c-0.4,0.1-0.8,0.1-1.3,0.2v1.2h0.8l0.4-0.5l0.8,0.5c-0.1,0.1-0.2,0.2-0.4,0.2h-1.6v1.2H59l0.3-0.3l0.7,0.5
	c-0.1,0.1-0.2,0.2-0.4,0.2v1.5c0,0-0.2,0.2-0.6,0.2v-0.4H57v0.4c0,0-0.1,0.2-0.6,0.2v-2.6l0.6,0.3h0.7V269h-1.8L55.9,268.7z
	 M57.4,272.9c0,0.1,0,0.3,0,0.4c0.1,0.8-0.5,1.4-1.2,1.5c-0.2,0-0.3-0.1-0.3-0.3s0.1-0.3,0.3-0.4c0.6-0.2,1-0.7,1.1-1.3H57.4z
	 M59.1,270.3H57v1.3h2.1L59.1,270.3z M62,273.5v1c0.3,0.1,0.3,0.1,0.3,0.2c0,0.3-0.3,0.4-1.1,0.4h-2c-0.8,0-1-0.1-1-0.7v-1.6
	l0.9,0.1c0,0.1-0.1,0.1-0.3,0.2v1.3c0,0.2,0,0.2,0.4,0.2h2c0.2,0,0.3,0,0.3-0.1c0.1-0.3,0.2-0.6,0.3-0.9L62,273.5z M59,272.2
	c1.4,0.1,1.9,0.7,1.9,1.1c0,0.2-0.1,0.3-0.2,0.3c0,0,0,0,0,0c-0.1,0-0.1,0-0.2-0.1c-0.4-0.5-0.9-0.9-1.5-1.2L59,272.2z M61.1,271.8
	v0.3c0,0-0.1,0.2-0.6,0.2v-4.9l0.6,0.3h0.6c0.1-0.3,0.2-0.8,0.2-1.1l1,0.2c0,0.1-0.1,0.2-0.3,0.2c-0.2,0.2-0.4,0.5-0.6,0.7h1.2
	l0.3-0.4l0.8,0.5c-0.1,0.1-0.2,0.2-0.4,0.2v3.9c-0.2,0.1-0.4,0.2-0.6,0.2v-0.5L61.1,271.8z M63.4,268h-2.3v1h2.3V268z M61.1,270.3
	h2.3v-1h-2.3V270.3z M61.1,271.6h2.3v-1h-2.3V271.6z M62.4,272.8c1.6,0.4,2.1,1.1,2.1,1.6c0,0.3-0.1,0.4-0.3,0.4
	c-0.1,0-0.2,0-0.3-0.1c-0.3-0.8-0.8-1.4-1.5-1.8L62.4,272.8z"/>
<path class="st0" d="M69,268.4c0,0.1-0.1,0.1-0.3,0.1c-0.1,1.5-0.5,2.9-1.1,4.2c0.9,1.3,2.3,1.6,4.4,1.6h1.8v0.1
	c-0.2,0-0.4,0.3-0.4,0.5h-1.4c-2.1,0-3.6-0.4-4.5-1.9c-0.5,0.9-1.3,1.6-2.1,2.1l-0.1-0.2c0.8-0.6,1.5-1.4,1.9-2.4
	c-0.4-0.8-0.7-1.7-0.8-2.6c-0.3,0.6-0.6,1.1-1,1.6l-0.1-0.1c0.8-1.5,1.3-3.2,1.4-4.9l0.9,0.2c0,0.1-0.1,0.2-0.3,0.2
	c-0.1,0.4-0.2,0.8-0.3,1.2H68l0.3-0.4L69,268.4z M66.8,268.4c-0.1,0.5-0.3,0.9-0.5,1.3c0.2,0.9,0.5,1.7,0.9,2.5
	c0.5-1.2,0.8-2.5,0.8-3.9H66.8z M70.2,269.4c0.2,1.6-0.5,3.2-1.8,4.2l-0.1-0.1c1-1.1,1.5-2.5,1.3-4v-2.3l0.7,0.3h1.2l0.3-0.4
	l0.8,0.6c-0.1,0.1-0.2,0.1-0.4,0.2v4.6c0,0.3,0,0.3,0.1,0.3h0.5c0,0,0.1,0,0.1-0.1c0.1-0.4,0.2-0.8,0.3-1.3h0.1v1.3
	c0.2,0.1,0.2,0.1,0.2,0.2s-0.2,0.4-0.7,0.4h-0.7c-0.6,0-0.6-0.1-0.6-0.9v-4.8h-1.4L70.2,269.4z"/>
</svg>
